<?xml version="1.0" encoding="UTF-8"?>
<svg xmlns="http://www.w3.org/2000/svg" version="1.1" viewBox="0 0 2122 2122">
  <!-- Generator: Adobe Illustrator 28.7.7, SVG Export Plug-In . SVG Version: 1.2.0 Build 194)  -->
  <g>
    <g id="Capa_1">
      <path d="M1703.136,1206.862c32.633,1.958,57.588-5.759,66.664-8.877,3.766-1.296,7.332-2.733,10.821-4.21-7.239-9.271-15.503-17.812-24.755-24.565-8.234,5.442-18.031,9.987-27.844,12.984-9.915,3.04-20.278,4.638-30.675,4.721-20.492.224-40.92-5.759-58.431-16.458-4.73,3.245-9.145,6.913-13.271,10.908,10.704,7.869,23.264,13.827,35.688,17.71,9.666,3.021,23.128,6.66,41.802,7.786Z" style="fill: #fefbf8;"/>
      <path d="M1564.053,1315.967c-.648,7.249-.775,14.519-.122,21.758,1.14,15.64,5.164,31.094,12.74,44.711,7.507,13.647,18.45,25.242,31.303,34.051,25.88,17.725,58.055,24.76,89.373,24.648,15.737-.166,31.454-2.178,46.519-6.338,15.054-4.132,29.519-10.441,42.134-19.337,12.638-8.819,23.415-20.234,30.767-33.71,7.371-13.452,11.464-28.628,12.672-44.117.156-1.617.248-3.235.331-4.853-26.66-22.114-78.665-42.216-130.181-45.456-52.341-3.289-104.749,10.777-135.536,28.643Z" style="fill: #fefbf8;"/>
      <path d="M593.153,1393.944c-66.397,1.579-130.045,33.72-129.139,54.392,4.424,6.675,9.242,13.092,14.236,19.328l7.342,7.795,3.664,3.897,4.01,3.537,8.049,7.04c2.835,2.139,5.778,4.151,8.662,6.231l4.346,3.099c1.491.965,3.084,1.774,4.619,2.665l9.281,5.237,9.773,4.224,4.892,2.095,5.091,1.54,10.182,3.045,10.47,1.832,5.233.906,5.301.282,10.597.585,10.592-.701,5.291-.341,5.213-.959,10.426-1.939,10.124-3.148,5.052-1.583,4.848-2.143,9.686-4.307,9.179-5.316c1.52-.906,3.089-1.725,4.56-2.699l4.287-3.128c2.845-2.1,5.749-4.127,8.546-6.285l7.902-7.094,3.936-3.557,3.586-3.917,7.181-7.825c7.231-9.247,14.08-18.859,19.688-29.184-4.545-21.978-67.298-45.018-126.707-43.605Z" style="fill: #fefbf8;"/>
      <path d="M473.027,1259.153c-.043.599-.112,1.194-.112,1.798,0,30.406,50.801,55.059,113.461,55.059s113.197-24.531,113.451-54.835l.014-.224c0-1.476-.156-2.928-.39-4.37-31.81-5.355-68.375-9.135-108.842-9.184-44.141-.059-83.682,4.326-117.495,10.387-.053.458-.053.916-.088,1.369Z" style="fill: #fefbf8;"/>
      <path d="M1231.315,1204.684c.682-.234,1.364-.511,2.046-.755l-3.225-63.678c-7.318,23.571-15.522,46.874-24.555,69.865,8.517-.351,17.281-2.582,25.734-5.432Z" style="fill: #606060;"/>
      <path d="M1037.241,2041.958c-9.252-16.774-18.265-33.686-26.776-50.874l36.872,107.95-21.14,22.285h24.633l19.132-22.445c-10.84-19.011-22.007-37.832-32.721-56.916Z" style="fill: #606060;"/>
      <path d="M2009.842,551.452c-17.116-31.639-32.989-63.123-47.825-92.643.098,26.465,1.813,52.906,4.911,79.186,12.95,3.342,27.386,7.708,42.913,13.457Z" style="fill: #fff;"/>
      <path d="M1986.456,639.69c38.655,3.016,74.815,18.645,104.096,41.607-21.569-29.086-41.481-60.569-59.965-92.662-17.666-5.16-37.077-9.676-58.265-13.116,3.727,21.593,8.429,43.016,14.134,64.17Z" style="fill: #fff;"/>
      <path d="M1838.346,794.446c-4.823,13.213-8.224,26.948-9.861,40.911-1.54,13.959-1.179,28.151,1.413,41.909,2.665,13.72,7.698,27.05,15.615,38.397,4.872,7.079,10.967,13.301,17.973,18.129,11.41,3.064,22.714,6.578,33.754,10.651,6.763.092,13.554-.829,20.083-2.656,13.194-3.635,25.393-10.616,36.034-19.347,21.344-17.613,36.677-41.783,46.372-67.605,5.525-15.644,9.033-32.112,9.91-48.604-4.95,13.618-14.957,23.639-27.819,25.783-8.984,1.506-17.895-1.101-25.569-6.626-.716,3.951-1.769,7.956-3.264,11.956-9.598,25.656-31.956,40.998-49.929,34.27-17.978-6.724-24.77-32.974-15.172-58.631,8.926-23.853,28.872-38.762,46.08-35.342.078-13.067,4.2-24.931,11.167-33.291-12.395-8.799-25.091-18.431-37.919-28.921-7.035,3.25-13.759,7.337-20,12.073-22.124,16.818-38.694,40.779-48.867,66.942ZM1974.822,849.856c1.671,1.179,3.206,2.572,4.171,4.833-2.456-.019-4.331-.897-6.071-1.988-1.676-1.179-3.216-2.572-4.171-4.833,2.456.01,4.336.891,6.071,1.988ZM1964.415,866.319c3.649,3.464,7.308,6.874,10.65,10.947-4.931-1.9-9.16-4.97-12.979-8.443-3.752-3.547-7.123-7.547-9.374-12.326,4.317,3.026,7.98,6.426,11.703,9.822ZM1951.777,886.021c2.548,2.962,4.911,6.09,6.499,9.905-3.601-2.032-6.421-4.75-9.062-7.634-2.553-2.958-4.921-6.086-6.499-9.905,3.605,2.027,6.431,4.745,9.062,7.635ZM1932.6,900.623c1.364,3.902,2.275,8,1.93,12.282-2.27-3.64-3.718-7.357-5.145-11.114-1.325-3.795-2.607-7.576-3.201-11.824,3.025,3.06,4.955,6.787,6.416,10.655ZM1905.711,909.31c.979-4.994,2.07-9.954,4.053-14.855.682,5.252.19,10.407-.692,15.479-.979,5.052-2.363,10.041-4.882,14.699-.112-5.286.643-10.31,1.52-15.323ZM1867.67,802.095c3.05,1.793,5.778,4.312,7.177,7.703-3.318-1.491-6.022-3.162-8.868-4.731-2.806-1.642-5.622-3.113-8.594-5.208,3.635-.536,7.191.526,10.285,2.236ZM1862.306,817.915c3.372,1.54,6.548,3.654,8.789,6.806-3.742-.911-6.918-2.309-10.163-3.678-3.211-1.457-6.392-2.855-9.588-4.994,3.84-.492,7.547.414,10.962,1.866ZM1858.76,837.919c3.99.297,7.995,1.296,11.391,3.645-4.102.253-7.82-.049-11.605-.234-3.781-.278-7.503-.444-11.547-1.208,3.664-1.92,7.766-2.407,11.762-2.202ZM1849.746,868.039c3.401-2.914,7.216-4.872,11.128-6.587,1.978-.799,3.976-1.569,6.041-2.153,1.004-.249,2.056-.697,3.42-.682.633.059,1.257.176,1.836.507.624.248,1.018,1.101.716,1.612-.37-1.13-1.52-.765-2.339-.467-.779.278-1.607.974-2.592,1.476-1.861,1.087-3.795,1.988-5.749,2.855-3.947,1.627-8,3.015-12.463,3.439ZM1869.39,888.54c-3.985,2.923-8.38,5.364-13.311,6.49,3.635-3.503,7.454-6.319,11.265-9.228,3.868-2.826,7.654-5.696,12.034-8.195-2.48,4.409-6.061,7.931-9.988,10.933ZM1893.468,887.298c-2.729,7.215-5.808,14.046-8.633,21.018-2.928,6.938-5.583,13.939-8.76,20.97.555-7.708,2.703-15.172,5.598-22.28,2.987-7.065,6.743-13.861,11.796-19.708Z" style="fill: #fff;"/>
      <path d="M2031.601,761.379c7.484,15.62,15.498,30.991,24.126,46.012-.467-1.774-.974-3.542-1.52-5.296-3.917-12.526-9.88-24.394-17.783-34.884-1.52-2.017-3.176-3.922-4.823-5.832Z" style="fill: #fff;"/>
      <path d="M1328.279,654.696c16.74-7.264,34.601-12.282,53.11-14.407-10.694-15.035-23.849-33.461-34.684-52.536-8.745,2.49-17.062,5.131-24.965,7.878.731,19.815,2.914,39.571,6.539,59.064Z" style="fill: #fff;"/>
      <path d="M1326.36,518.108c-2.728,17.15-4.273,34.47-4.74,51.829,4.414-2.198,8.765-4.249,13.077-6.217-6.782-16.097-10.524-31.844-8.336-45.612Z" style="fill: #fff;"/>
      <path d="M1523.62,523.389c1.929.034,3.859.107,5.788.18-3.21-2.451-6.421-4.896-9.632-7.342,2.865.653,5.676,1.52,8.453,2.494-11.508-28.955-21.656-55.848-30.577-80.404-9.116,28.419-16.01,57.525-20.872,86.962,22.962-2.466,38.645-2.027,46.84-1.89Z" style="fill: #fff;"/>
      <path d="M1314.779,661.166c-9.339-17.164-17.7-34.85-25.008-52.969-11.902,5.252-22.499,10.577-31.727,15.693-5.72,31.766-9.759,63.834-12.063,96.033,17.627-23.756,41.374-44.321,68.798-58.757Z" style="fill: #fff;"/>
      <path d="M1272.421,558.088c-3.961,15.318-7.517,30.733-10.665,46.235,7.337-4.999,14.489-9.442,21.359-13.481-3.907-10.802-7.532-21.71-10.694-32.755Z" style="fill: #fff;"/>
      <path d="M1381.238,736.254c-2.202,3.249-4.092,6.704-5.837,10.251,9.023-10.485,21.281-16.175,33.666-14.105,18.456,3.079,31.079,22.324,31.211,45.242,17.208-3.42,37.155,11.488,46.08,35.342,9.598,25.656,2.806,51.907-15.172,58.631-17.973,6.728-40.331-8.614-49.929-34.27-1.496-4-2.548-8.005-3.264-11.956-7.674,5.525-16.584,8.132-25.569,6.626-12.862-2.144-22.87-12.166-27.82-25.778.877,16.492,4.385,32.955,9.91,48.599,9.695,25.822,25.028,49.992,46.377,67.605,10.636,8.731,22.835,15.712,36.029,19.347,6.529,1.827,13.321,2.748,20.083,2.656,11.04-4.073,22.343-7.586,33.754-10.651,7.006-4.828,13.101-11.05,17.973-18.129,7.917-11.347,12.95-24.677,15.615-38.397,2.592-13.759,2.952-27.951,1.413-41.909-1.632-13.963-5.038-27.697-9.861-40.911-10.173-26.163-26.743-50.123-48.867-66.942-3.771-2.865-7.727-5.481-11.81-7.839,4.921,33.067,12.443,65.734,22.699,97.558-23.8-36.331-47.205-72.999-71.02-109.368-5.36.521-10.631,1.671-15.649,3.581-.614.238-1.198.531-1.798.789-1.72.804-3.43,1.632-5.126,2.499-9.261,5.091-17.154,12.604-23.088,21.53ZM1399.421,849.856c1.735-1.097,3.615-1.978,6.071-1.988-.955,2.261-2.495,3.654-4.17,4.833-1.739,1.091-3.615,1.968-6.071,1.988.965-2.261,2.499-3.654,4.17-4.833ZM1412.157,868.823c-3.82,3.474-8.049,6.543-12.979,8.443,3.342-4.073,7.001-7.484,10.65-10.947,3.722-3.396,7.386-6.797,11.703-9.822-2.251,4.779-5.623,8.78-9.374,12.326ZM1425.029,888.292c-2.641,2.884-5.462,5.603-9.063,7.634,1.588-3.815,3.951-6.943,6.505-9.905,2.626-2.889,5.452-5.608,9.057-7.635-1.578,3.819-3.946,6.948-6.499,9.905ZM1444.858,901.792c-1.428,3.757-2.875,7.474-5.145,11.114-.346-4.283.565-8.38,1.929-12.282,1.462-3.869,3.391-7.596,6.417-10.655-.595,4.249-1.871,8.029-3.201,11.824ZM1465.17,909.934c-.882-5.072-1.374-10.226-.692-15.479,1.983,4.901,3.074,9.861,4.054,14.855.877,5.013,1.632,10.036,1.525,15.323-2.523-4.658-3.907-9.647-4.886-14.699ZM1512.034,864.599c-1.954-.868-3.888-1.769-5.749-2.855-.984-.502-1.813-1.198-2.592-1.476-.818-.297-1.968-.663-2.338.467-.302-.511.092-1.364.716-1.612.58-.331,1.203-.448,1.837-.507,1.364-.015,2.417.434,3.42.682,2.066.584,4.064,1.354,6.042,2.153,3.917,1.715,7.727,3.673,11.128,6.587-4.463-.424-8.517-1.813-12.463-3.439ZM1515.698,841.33c-3.786.185-7.503.487-11.605.234,3.396-2.348,7.401-3.347,11.391-3.645,3.995-.204,8.098.282,11.761,2.202-4.044.765-7.766.93-11.547,1.208ZM1522.904,816.049c-3.201,2.139-6.382,3.537-9.593,4.994-3.245,1.369-6.421,2.767-10.163,3.678,2.241-3.152,5.418-5.267,8.789-6.806,3.415-1.452,7.123-2.358,10.967-1.866ZM1506.573,802.095c3.094-1.71,6.65-2.772,10.285-2.236-2.972,2.095-5.788,3.566-8.594,5.208-2.845,1.569-5.549,3.24-8.867,4.731,1.398-3.391,4.127-5.91,7.177-7.703ZM1506.899,885.802c3.81,2.909,7.63,5.724,11.264,9.228-4.931-1.126-9.325-3.567-13.31-6.49-3.927-3.001-7.508-6.524-9.988-10.933,4.38,2.499,8.166,5.369,12.034,8.195ZM1498.168,929.285c-3.176-7.03-5.832-14.032-8.755-20.97-2.831-6.972-5.909-13.803-8.638-21.018,5.052,5.846,8.809,12.643,11.795,19.708,2.894,7.108,5.043,14.572,5.598,22.28Z" style="fill: #fff;"/>
      <path d="M1329.887,662.827c2.329,11.225,5.135,22.343,8.424,33.33,20.058-11.279,42.27-19.352,65.456-23.142-4.209-6.28-8.365-12.594-12.628-18.84-1.131-1.651-2.348-3.4-3.605-5.203-16.633,1.272-34.129,4.814-52.17,11.625-1.871.707-3.659,1.481-5.476,2.232Z" style="fill: #fff;"/>
      <path d="M2063.527,744.376c22.938,27.03,37.12,50.557,45.812,67.117,4.872,9.272,7.26,14.733,8.244,17.374,1.364,3.649,2.606,7.298,3.737,10.933v-35.644c-6.329-10.046-14.553-21.198-25.291-32.375-11.4-11.873-22.767-20.804-32.501-27.405Z" style="fill: #fff;"/>
      <path d="M1989.165,649.185c2.924,10.28,6.051,20.502,9.437,30.645,42.528,13.715,79.693,41.534,103.229,75.639,8.906,12.902,15.079,25.603,19.489,37.013v-71.2c-18.665-23.669-45.14-46.606-82.44-60.687-17.16-6.475-33.817-9.983-49.715-11.41Z" style="fill: #fff;"/>
      <path d="M1256.66,828.867c.984-2.641,3.372-8.102,8.244-17.374,8.691-16.56,22.874-40.087,45.812-67.117-9.739,6.601-21.101,15.532-32.502,27.405-15.81,16.463-26.27,32.92-33.076,45.763,3.591-15.269,10.948-38.421,27.274-62.075,15.937-23.093,38.134-43.293,63.995-58.202-6.295-9.578-12.317-19.337-17.949-29.325-33.52,16.468-56.959,40.292-73.188,63.697-2.577,43.873-2.056,87.931,1.739,131.711,2.188-11.186,5.296-22.831,9.652-34.485Z" style="fill: #fff;"/>
      <path d="M176.659,555.223c-2.158,13.583-3.668,27.264-4.57,40.989,2.991-1.004,5.993-2.027,8.945-2.953-4.307-13.418-6.231-26.363-4.375-38.037Z" style="fill: #fff;"/>
      <path d="M115.71,600.421c-1.812,6.987-3.488,14.007-5.145,21.028,3.298-1.618,6.675-3.23,10.134-4.833-1.715-5.384-3.434-10.762-4.989-16.195Z" style="fill: #fff;"/>
      <path d="M944.039,583.729c-17.461-32.667-33.753-65.028-49.081-95.541.107,29.164,1.949,58.304,5.281,87.268,13.564,1.924,28.243,4.614,43.8,8.273Z" style="fill: #fff;"/>
      <path d="M185.273,738.987c22.899-9.364,47.892-15.167,73.422-16.76-2.962-4.385-5.856-8.814-8.833-13.179-4.516-6.621-10.056-14.324-16.044-22.772-20.814,1.452-39.829,5.764-56.974,11.941,2.192,13.71,4.989,27.323,8.428,40.77Z" style="fill: #fff;"/>
      <path d="M370.217,465.017c-11.021,34.392-19.283,69.646-24.804,105.324,34.149.444,56.497,4.478,67.737,6.456-16.507-40.75-30.733-78.207-42.933-111.78Z" style="fill: #fff;"/>
      <path d="M1202.901,741.112c-13.13-43.245-28.423-85.831-45.905-127.512-9.018,14.704-19.108,33.768-27.829,56.833,29.681,22.577,54.772,48.453,73.734,70.679Z" style="fill: #fff;"/>
      <path d="M297.954,790.919c18.314,10.577,24.053,35.951,15.113,60.273,19.566,3.191,34.772,26.884,34.772,55.678,0,30.967-17.583,56.068-39.269,56.068s-39.274-25.101-39.274-56.068c0-4.828.477-9.486,1.277-13.954-10.305,2.811-20.77,2.037-29.681-3.113-12.76-7.371-19.381-21.939-19.23-38.319-5.603,17.808-8.409,36.628-8.755,55.386.034,31.181,6.684,62.845,22.304,89.953,7.805,13.456,17.944,25.68,30.47,34.762,6.187,4.516,13.008,8.185,20.199,10.762,13.301.063,26.65.823,39.941,2.1,9.325-2.339,18.241-6.509,26.202-12.073,12.872-8.882,23.479-20.999,31.737-34.465,8.185-13.545,14.187-28.429,18.09-43.819,3.801-15.435,5.632-31.323,5.764-47.22-.404-31.736-8.453-63.668-25.208-90.24-8.346-13.213-18.996-24.969-31.664-33.471-2.07-1.403-4.214-2.68-6.392-3.888,5.54,38.675,14.193,76.906,26.168,114.104-26.397-40.321-52.37-81.003-78.772-121.378-8.838,2.412-17.247,6.538-24.765,11.98-3.678,2.611-7.142,5.53-10.44,8.653,13.759-7.62,29.066-8.843,41.412-1.71ZM241.234,911.463c2.27-.472,4.604-.662,7.211.297-1.91,2.017-4.087,2.884-6.328,3.464-2.27.468-4.604.658-7.206-.297,1.91-2.007,4.083-2.874,6.324-3.464ZM230.125,940.389c5.145-2.992,10.368-5.15,15.606-7.372,5.281-2.119,10.509-4.268,16.268-5.764-4.268,4.171-9.427,7.065-14.796,9.335-5.413,2.168-11.113,3.742-17.077,3.801ZM240.498,966.795c3.191-3.41,6.933-5.788,10.807-7.907,3.927-2.022,7.995-3.781,12.614-4.497-3.191,3.42-6.928,5.798-10.806,7.912-3.932,2.013-8,3.771-12.614,4.492ZM268.751,984.452c-2.996,3.416-6.002,6.777-9.846,9.734,1.33-4.677,3.922-8.653,6.909-12.243,3.074-3.518,6.596-6.699,11.006-8.741-2.309,4.263-5.155,7.761-8.068,11.25ZM290.826,1001.797c-1.057,5.652-2.246,11.269-4.458,16.828-.819-5.934-.302-11.766.657-17.505,1.077-5.715,2.597-11.371,5.398-16.658.161,5.973-.653,11.659-1.598,17.335ZM314.286,1034.682c-.58-8.701-.614-17.164-.965-25.666-.234-8.507-.779-16.96-.818-25.676,3.03,8.19,4.316,16.872,4.682,25.54.248,8.672-.434,17.423-2.899,25.802ZM337.496,994.196c-2.967-4.736-5.359-9.885-6.241-15.532,3.644,4.38,6.514,8.916,9.486,13.442,2.884,4.589,5.817,9.086,8.273,14.231-4.774-3.147-8.463-7.474-11.518-12.141ZM373.549,903.347c3.951-.59,8.141-.302,11.771,1.705-3.981,1.043-7.537,1.481-11.157,2.11-3.634.531-7.157,1.233-11.259,1.496,2.821-3.035,6.709-4.624,10.645-5.31ZM372.965,922.221c4.19-.186,8.472.326,12.341,2.368-4.234.999-8.151,1.218-12.126,1.491-3.976.161-7.898.38-12.219-.132,3.624-2.456,7.824-3.435,12.004-3.727ZM368.794,944.808c4.306,1.364,8.453,3.508,11.576,6.987-4.585-.784-8.594-2.09-12.701-3.289-4.078-1.306-8.136-2.461-12.38-4.355,4.531-1.141,9.164-.604,13.506.657ZM351.693,964.208c1.959,1.442,3.766,3.045,5.545,4.682,3.459,3.362,6.718,6.943,9.164,11.376-4.55-2.217-8.288-5.291-11.824-8.58-1.725-1.686-3.42-3.41-4.955-5.296-.843-.926-1.442-1.988-2.158-2.592-.745-.638-1.822-1.481-2.66-.434-.117-.657.638-1.403,1.393-1.422.75-.122,1.452.005,2.144.19,1.452.526,2.387,1.417,3.352,2.075Z" style="fill: #fff;"/>
      <path d="M114.058,817.544c15.761-14.085,40.087-33.378,75.064-52.911-12.916,3.133-28.477,8.088-45.247,16.141-23.255,11.162-40.843,24.448-53.13,35.351,9.847-14.742,26.801-36.345,53.447-54.923,10.475-7.303,21.837-13.7,33.846-19.108-7.177-11.737-13.988-23.698-20.302-35.922-29.919,14.148-53.154,33.349-69.607,50.148-3.128,31.844-4.711,63.824-4.857,95.819,4.614-6.578,9.661-13.106,15.186-19.464,2.09-2.402,6.777-7.24,15.601-15.133Z" style="fill: #fff;"/>
      <path d="M104.942,732.323c14.49-12.902,31.269-23.976,49.51-32.804-10.66-21.296-19.985-43.25-27.936-65.7-7.157,2.105-13.881,4.263-20.17,6.451-7.698,35.649-13.486,71.707-17.335,107.975,4.765-5.325,10.046-10.68,15.931-15.922Z" style="fill: #fff;"/>
      <path d="M227.958,677.955c-12.4-17.739-25.88-38.055-36.014-58.421-7.181,1.067-14.124,2.241-20.818,3.527-.151,22.558,1.383,45.125,4.565,67.459,16.706-6.124,34.294-10.407,52.268-12.565Z" style="fill: #fff;"/>
      <path d="M1251.968,1894.602c3.508,7.859,7.347,15.562,11.795,22.918,11.264,18.367,25.739,34.894,43.303,47.01,6.28,4.385,13.008,8.112,20.014,11.113,22.071,1.466,46.577,2.134,73.081,1.354,8.765-3.43,17.111-7.985,24.73-13.545,17.091-12.385,30.928-29.057,41.578-47.415,21.316-36.974,30.392-80.17,30.441-122.698-.477-25.579-4.307-51.254-11.952-75.546-5.067-16.097-11.761-31.6-20.418-46.012-2.631-4.404-5.452-8.696-8.453-12.843v140.305c.726.098,1.447.215,2.159.366,3.059.804,6.031,1.978,8.633,4.721-3.547,1.306-6.733,1.043-9.832.409l-.96-.287v26.241c5.813,2.479,11.61,5.042,17.33,8.365-5.978-.053-11.757-1.242-17.33-3.03v36.034c1.087.94,2.154,1.939,3.167,3.02-1.087-.166-2.124-.429-3.167-.682v34.197l-7.235-36.526c-2.324-.94-4.589-1.988-6.811-3.118-5.286-2.889-10.397-6.119-14.743-10.792,6.305.974,11.849,3.381,17.213,6.134,1.062.585,2.11,1.194,3.157,1.812l-7.357-37.144c-3.717-2.202-7.245-4.736-10.402-7.815,3.259.838,6.372,1.861,9.437,2.943l-9.457-47.736c-3.878-.278-7.786-.984-11.679-2.046,1.097,6.095,1.74,12.448,1.74,19.03,0,42.236-23.99,76.477-53.583,76.477s-53.592-34.241-53.592-76.477c0-39.269,20.75-71.591,47.449-75.941-12.2-33.174-4.36-67.785,20.623-82.211,6.168-3.562,12.901-5.52,19.854-6.168l-3.381-17.067c-9.934-3.644-20.37-5.739-30.952-5.856-1.427-.009-2.845.097-4.268.156l-34.514,8.083c-6.524,2.811-12.828,6.236-18.772,10.265-16.063,10.777-29.714,25.403-40.706,41.88l-16.141,228.12ZM1424.707,1895.742c4.073,4.902,7.62,10.319,9.432,16.702-5.247-4.029-9.344-8.618-13.437-13.276-3.971-4.76-7.864-9.525-11.016-15.342,6.027,2.777,10.826,7.123,15.02,11.917ZM1395.767,1921.905c1.306,7.824,2.017,15.781.892,23.868-3.025-7.576-4.638-15.235-6.085-22.952-1.281-7.742-2.397-15.488-2.173-23.644,3.829,7.216,5.895,14.928,7.366,22.728ZM1361,1897.647c-.044,11.893-.804,23.42-1.12,35.02-.478,11.6-.517,23.147-1.316,35.016-3.367-11.43-4.288-23.366-3.951-35.196.497-11.824,2.241-23.669,6.387-34.84ZM1335.407,1891.27c-1.194,7.707-4.468,14.728-8.512,21.184-4.175,6.372-9.198,12.277-15.717,16.565,3.347-7.025,7.357-13.155,11.284-19.411,4.063-6.173,7.97-12.365,12.945-18.338ZM1309.541,1870.096c.643-.453,1.676-1.121,2.548-1.374.94-.263,1.895-.477,2.923-.292,1.048.059,2.061,1.082,1.905,1.978-1.155-1.442-2.592-.205-3.624.595-.595.501-.868.877-1.384,1.588-.497.673-1.043,1.291-1.564,1.939-2.099,2.572-4.409,4.921-6.757,7.23-4.828,4.482-9.925,8.682-16.141,11.703,3.338-6.056,7.79-10.933,12.506-15.522,2.427-2.231,4.892-4.419,7.566-6.382.677-.487,1.321-1.004,2.022-1.462ZM1285.722,1850.13c-5.613,1.637-11.074,3.42-17.33,4.492,4.253-4.755,9.915-7.669,15.795-9.53,5.924-1.72,12.244-2.456,18.426-.896-5.793,2.592-11.327,4.156-16.891,5.934ZM1278.199,1819.543c-5.423-.37-10.767-.663-16.55-2.032,5.281-2.792,11.128-3.474,16.843-3.23,5.705.405,11.44,1.735,16.38,5.087-5.9.701-11.24.395-16.672.175ZM1277.697,1788.542c5.369.94,10.675,3.094,14.523,7.245-5.598-.361-10.401-1.321-15.362-2.041-4.94-.862-9.797-1.452-15.23-2.879,4.955-2.743,10.674-3.128,16.068-2.324Z" style="fill: #fff;"/>
      <path d="M1269.201,1651.038c7.269-10.577,15.722-20.423,25.5-28.998l-23.844,5.584-1.656,23.415Z" style="fill: #fff;"/>
      <path d="M643.998,1614.337l-34.519-8.083c-1.418-.059-2.84-.166-4.263-.156-20.321.229-40.131,7.596-56.75,19.62-5.018,3.562-9.749,7.547-14.246,11.805,18.772-10.397,39.664-12.063,56.516-2.333,24.984,14.426,32.818,49.037,20.618,82.211,26.704,4.35,47.449,36.672,47.449,75.941,0,42.236-23.99,76.477-53.588,76.477s-53.588-34.241-53.588-76.477c0-6.582.643-12.935,1.74-19.03-14.061,3.829-28.341,2.777-40.507-4.249-17.413-10.051-26.446-29.924-26.241-52.267-7.64,24.292-11.474,49.968-11.947,75.546.049,42.528,9.12,85.724,30.436,122.698,10.65,18.358,24.487,35.03,41.578,47.415,7.62,5.559,15.966,10.115,24.73,13.545,26.504.779,51.015.112,73.086-1.354,7.006-3.001,13.73-6.729,20.015-11.113,17.564-12.117,32.038-28.643,43.302-47.01,11.172-18.475,19.362-38.777,24.687-59.771,5.183-21.047,7.683-42.718,7.868-64.408-.555-43.283-11.537-86.84-34.402-123.088-11.391-18.022-25.924-34.056-43.21-45.651-5.944-4.029-12.243-7.454-18.767-10.265ZM513.334,1799.612c3.094-.648,6.28-.911,9.832.404-2.601,2.758-5.573,3.932-8.633,4.726-3.099.634-6.28.896-9.832-.409,2.602-2.743,5.578-3.917,8.633-4.721ZM498.167,1839.061c7.021-4.083,14.153-7.016,21.3-10.051,7.211-2.889,14.334-5.822,22.202-7.859-5.827,5.691-12.867,9.632-20.194,12.73-7.391,2.948-15.167,5.111-23.308,5.179ZM512.325,1875.085c4.355-4.658,9.462-7.893,14.743-10.787,5.364-2.752,10.908-5.16,17.213-6.134-4.346,4.672-9.457,7.902-14.743,10.792-5.369,2.738-10.913,5.15-17.213,6.129ZM550.883,1899.167c-4.097,4.658-8.195,9.247-13.437,13.276,1.812-6.382,5.354-11.8,9.427-16.702,4.195-4.794,8.999-9.14,15.02-11.917-3.147,5.817-7.045,10.582-11.011,15.342ZM581.007,1922.821c-1.447,7.717-3.06,15.376-6.081,22.952-1.13-8.088-.419-16.044.892-23.868,1.471-7.8,3.537-15.513,7.366-22.728.22,8.156-.896,15.902-2.178,23.644ZM613.016,1967.683c-.794-11.868-.838-23.415-1.316-35.016-.316-11.6-1.077-23.128-1.116-35.02,4.141,11.171,5.886,23.016,6.382,34.84.341,11.829-.585,23.766-3.951,35.196ZM644.685,1912.454c-4.039-6.456-7.318-13.476-8.512-21.184,4.979,5.973,8.887,12.165,12.95,18.338,3.927,6.256,7.932,12.385,11.279,19.411-6.514-4.288-11.542-10.193-15.717-16.565ZM693.888,1788.542c5.393-.804,11.108-.419,16.063,2.324-5.432,1.427-10.285,2.017-15.225,2.879-4.964.721-9.763,1.681-15.366,2.041,3.853-4.151,9.159-6.305,14.528-7.245ZM693.088,1814.281c5.715-.243,11.567.438,16.843,3.23-5.783,1.369-11.128,1.661-16.55,2.032-5.427.219-10.772.526-16.672-.175,4.94-3.352,10.675-4.682,16.38-5.087ZM687.398,1845.092c5.88,1.861,11.537,4.774,15.795,9.53-6.256-1.072-11.722-2.855-17.33-4.492-5.569-1.779-11.103-3.343-16.892-5.934,6.178-1.559,12.502-.823,18.426.896ZM671.627,1877.94c4.721,4.589,9.174,9.466,12.506,15.522-6.212-3.021-11.308-7.221-16.136-11.703-2.353-2.309-4.663-4.658-6.762-7.23-.517-.648-1.067-1.267-1.559-1.939-.521-.711-.79-1.087-1.384-1.588-1.033-.799-2.475-2.036-3.629-.595-.151-.897.862-1.919,1.905-1.978,1.033-.185,1.988.029,2.928.292.872.253,1.905.921,2.548,1.374.701.458,1.345.974,2.017,1.462,2.68,1.963,5.145,4.151,7.566,6.382Z" style="fill: #fff;"/>
      <polygon points="1378.354 1516.228 1278.374 1521.407 1273.103 1595.915 1388.249 1566.177 1378.354 1516.228" style="fill: #fff;"/>
      <path d="M1868.24,1788.654c5.847-32.399,10.456-65.023,14.095-97.758l-44.264-194.501,57.345-2.968c17.505-9.861,34.68-20.316,51.42-31.435,66.026-44.131,125.134-98.674,174.483-161.022v-379.3c-1.092-2.718-2.402-5.583-4.02-8.565-6.655-12.214-12.161-14.894-15.376-16.029-5.165-1.822-10.952-1.203-16.087.692-5.145,1.89-9.744,4.979-14.207,8.156-13.788,9.802-26.065,20.653-37.603,32.998-11.245,12.039-24.463,25.447-32.623,39.854,7.99-14.114,16.755-27.79,26.231-40.95-8.804,8.882-17.871,17.505-27.196,25.851,11.595-12.784,22.217-26.446,31.746-40.832-5.165,3.615-9.988,7.713-14.397,12.219,23.094-23.093,38.913-54.012,41.583-86.888,1.062-13.106-.068-26.397-3.245-39.157-11.381-5.33-24.316-11.751-38.436-19.425.916,23.127-3.532,46.207-11.562,67.639-10.475,26.66-26.719,51.474-49.286,69.534-11.259,8.95-24.17,16.117-38.246,19.771-3.518.926-7.108,1.608-10.738,2.032,27.293,11.099,52.735,25.598,74.187,44.355-20.555-9.145-41.924-16.472-63.771-21.866,11.313,5.082,20.999,13.71,27.337,24.365-19.708-11.342-49.636-26.796-88.101-39.859-48.58-16.502-90.051-22.143-89.802-23.576.136-.799,13.096.268,73.149,9.203-23.113-8.711-46.626-16.346-70.446-22.874,27.259,2.056,56.015,6.192,84.272,13.155-4.506-4.195-8.502-8.916-11.829-14.022-7.864-12.053-12.482-25.88-14.734-39.868-2.319-14.022-2.222-28.317-.497-42.329,1.647-14.037,5.072-27.834,9.915-41.105,4.936-13.242,11.26-25.983,18.987-37.875,7.708-11.903,16.896-22.987,27.81-32.331,5.51-4.716,11.469-9.013,17.847-12.658-1.828-1.525-3.659-3.074-5.491-4.633-17.199,5.603-33.88,15.196-47.483,24.482-23.912,16.322-44.58,36.887-65.1,57.325,18.192-26.358,39.244-50.743,62.659-72.584-15.41,4.955-30.231,11.761-44.033,20.219,11.678-13.345,34.83-36.394,69.441-51.307-2.305-2.154-4.609-4.341-6.909-6.558-9.617,5.564-15.493,9.949-16.652,10.845,3.917-3.532,8.994-7.815,15.079-12.355-23.956-23.201-47.761-49.637-70.406-79.722-51.303-68.165-81.295-134.674-99.244-185.665l-.331-.009-.74-.014h-.151c-23.576,139-46.528,283.695-6.553,418.827,2.836,9.579-22.304-14.855-61.086-93.446-29.023-58.801-53.827-113.904-74.952-164.15-1.944-.292-6.3-.921-12.185-1.583,0,0-14.826-1.681-30.236-2.134-12.619-.375-24.828-.336-36.643.044-2.607,27.897-3.44,55.971-2.304,83.97,26.606,11.118,45.929,26.48,56.764,36.238-2.338-1.807-23.566-17.598-56.341-28.969.253,4.804.478,9.608.838,14.407l.741.146c52.258,11.532,85.748,44.409,100.642,61.437-13.802-8.458-28.623-15.264-44.038-20.219,23.42,21.841,44.472,46.226,62.664,72.584-20.521-20.438-41.189-41.003-65.1-57.325-14.733-10.056-33.062-20.482-51.761-25.793.302,2.426.653,4.843.984,7.269,5.545,3.352,10.782,7.167,15.649,11.333,10.913,9.344,20.102,20.428,27.81,32.331,7.727,11.892,14.051,24.633,18.986,37.875,4.843,13.271,8.268,27.069,9.915,41.105,1.725,14.012,1.822,28.307-.497,42.329-2.25,13.988-6.869,27.815-14.733,39.868-3.328,5.106-7.323,9.827-11.829,14.022,28.258-6.962,57.013-11.099,84.272-13.155-23.819,6.529-47.332,14.163-70.445,22.874,60.053-8.935,73.013-10.002,73.149-9.203.248,1.432-41.223,7.074-89.802,23.576-38.465,13.062-68.394,28.517-88.102,39.859,6.338-10.655,16.024-19.284,27.337-24.365-21.846,5.394-43.215,12.721-63.77,21.866,21.452-18.757,46.894-33.257,74.187-44.355-3.629-.424-7.22-1.106-10.738-2.032-14.075-3.654-26.986-10.821-38.241-19.771-22.572-18.061-38.815-42.874-49.29-69.534-10.046-26.826-14.636-56.228-9.9-85.071,2.202-12.74,6.324-25.369,13.047-36.711-.926.692-1.871,1.379-2.767,2.056-11.396,8.609-22.09,18.3-30.674,29.705-7.903,10.49-13.866,22.358-17.783,34.884-4.638,14.831-6.421,30.587-5.164,46.08,2.665,32.877,18.489,63.795,41.583,86.888-4.409-4.506-9.232-8.604-14.397-12.219,9.53,14.387,20.151,28.048,31.747,40.832-9.326-8.346-18.392-16.969-27.196-25.851,9.476,13.159,18.241,26.835,26.231,40.95-8.16-14.407-21.378-27.815-32.623-39.854-11.537-12.346-23.815-23.196-37.603-32.998-4.463-3.177-9.062-6.266-14.207-8.156-5.135-1.895-10.923-2.514-16.087-.692-3.216,1.135-8.721,3.815-15.377,16.029-1.227,2.256-2.28,4.443-3.196,6.553.721,4.77,1.403,9.544,2.198,14.3-1.272-3.459-2.49-6.943-3.752-10.407-4.643,12.463-4.399,21.242-5.52,21.223-1.676-.029-5.321-19.566-3.868-47.269-8.068-22.86-15.805-45.836-23.279-68.901l25.179,452.323c14.811,20.355,30.626,39.98,47.42,58.728,34.757,38.63,73.436,73.714,115.312,104.457,33.292,24.583,68.645,46.281,105.462,65.152l-17.254.893c-4.87-2.631-9.749-5.246-14.566-7.97l.017,8.723-25.006,1.294v36.448l86.889-22.446-3.691-14.347,211.094-10.925-73.894,544.303-124.364-483.474-96.034,22.484v53.252c7.469,8.58,14.008,17.919,19.688,27.634,22.431,39.093,31.698,84.043,31.683,128.209-.726,44.16-10.777,88.779-33.612,127.063-11.42,19.006-26.192,36.331-44.545,49.217-3.396,2.402-6.967,4.57-10.612,6.616,70.684-3.737,124.594-15.786,124.983-13.744.234,1.223-19.069,6.689-110.625,26.236,38.089.093,76.174-1.588,114.104-5.028-107.668,31.278-238.629,47.074-345.961,6.616,34.631,2.095,69.451,1.13,103.912-2.884-19.079-1.223-37.725-8.453-52.643-20.414,16.604,2.747,37.164,5.588,60.94,7.59-3.153-1.9-6.251-3.892-9.199-6.071-17.88-13.154-32.014-30.625-42.82-49.612-3.62-6.29-6.845-12.789-9.764-19.41l-6.485,91.634-66.09-342.029-12.37,2.894-36.96,70.503,16.302-93.777,27.707-7.157-18.129-93.826-138.917,7.191c-10.607,103.322-19.167,174.044-20.278,145.923-.784-19.947-9.661-73.948-22.523-143.707l-9.174.475c51.924-45.188,98.536-96.531,138.264-152.839,30.44-43.069,56.867-88.969,79.229-136.793,4.599-9.841,8.96-19.79,13.189-29.797l-2.08-.171,2.227-5.364c12.804-30.845,23.902-62.392,33.495-94.406l-17.622-348.075c-2.246-8.063-4.643-16.083-7.045-24.102-4.975-5.51-10.777-11.274-19.366-19.795-13.35-13.237-32.55-30.743-58.036-49.792-2.514,7.05-4.911,14.377-7.074,22.129-13.754,49.247-13.462,91.951-11.001,119.892-56.54-53.442-104.277-125.933-145.645-199.701-17.803-2.471-37.057-4.166-57.661-4.8,10.743,65.213,29.588,129.071,55.917,189.684,56.663,13.033,110.304,39.362,154.586,77.081-42.382-30.192-92.798-46.508-144.476-54.757,9.369,19.873,19.469,39.405,30.47,58.426-30.114-14.076-70.153-35.03-114.167-65.1-28.331.316-56.701,3.941-83.254,13.539-10.757,3.888-37.968,25.267-48.72,17.014-15.186-11.659,19.23-32.409,28.794-37.442,20.638-10.86,44.117-15.128,67.356-16.999.838-.068,1.676-.078,2.514-.141-49.656-37.812-102.299-87.118-150.298-150.927l-.312-.424c-7.537,2.982-13.963,5.813-19.025,8.17-3.902-17.315-7.8-34.631-11.698-51.946l.117-.058c-40.36-62.299-65.831-121.309-82.172-168.276-26.796,157.938-53.271,322.482-7.844,476.098,3.206,10.831-25.208-16.794-69.032-105.641-28.828-58.431-53.963-113.631-75.839-164.71-.687-.234-1.34-.463-2.031-.687,0,0-5.715-1.871-14.563-4.312,0,0-16.258-4.478-33.378-7.698-16.809-3.157-33.003-5.491-48.706-7.254-2.173,25.203-2.967,50.514-2.441,75.809,2.373,1.053,4.74,2.144,7.094,3.299,54.27,26.675,82.221,71.761,94.012,94.455-2.602-4.2-36.658-57.052-100.881-86.328.331,9.033.838,18.056,1.515,27.074,16.331,5.257,32.189,12.604,47.123,22.29,50.733,32.916,73.154,80.993,82.177,104.925-11.26-14.426-24.248-27.503-38.597-38.86,16.136,32.409,28.755,66.567,37.574,101.68-13.622-29.768-27.352-59.727-46.197-86.489-16.648-23.639-40.833-51.059-68.872-61.246l-.467-.146c1.203.813,2.407,1.622,3.557,2.49,13.306,10.027,23.619,23.201,31.449,37.373,7.854,14.222,13.188,29.598,16.633,45.247,3.464,15.659,5.111,31.649,5.091,47.629-.127,15.971-1.969,31.937-5.788,47.454-3.717,15.518-9.276,30.694-17.286,44.619-7.922,13.919-18.28,26.728-31.381,36.375-5.539,4.087-11.639,7.503-18.066,10.158,32.657,3.825,64.735,10.841,94.396,19.459-27.795-2.523-55.707-3.756-83.614-3.688,67.088,14.333,81.232,18.338,81.061,19.235-.302,1.618-46.431-8.837-104.379-10.616-45.88-1.408-83.677,3.099-109.022,7.293,10.928-8.765,24.594-14.065,38.577-14.962-25.257-2.942-50.771-3.649-76.15-2.114,30.128-11.362,62.805-16.633,96.081-17.574-3.673-1.88-7.206-4.029-10.562-6.402-13.447-9.447-24.273-22.148-32.643-36.082-16.731-28.068-24.097-60.779-24.628-93.154-.01-32.379,6.777-65.334,23.215-93.997,7.376-12.619,16.74-24.36,28.345-33.695-1.257.356-2.523.716-3.742,1.077-15.469,4.599-30.625,10.621-44.233,19.298-12.516,7.975-23.522,18.182-32.633,29.89-10.782,13.866-18.908,29.841-23.712,46.742-10.197,35.868-5.695,74.874,9.598,108.472-2.875-6.519-6.363-12.765-10.392-18.64,4.385,19.011,10.216,37.685,17.423,55.814-6.563-12.531-12.745-25.257-18.548-38.153,4.823,17.691,8.682,35.649,11.552,53.758-2.933-18.489-11.615-37.919-18.753-55.127-7.313-17.642-16.014-33.993-26.718-49.837-3.469-5.13-7.118-10.226-11.81-14.265-4.687-4.039-10.563-6.982-16.755-7.104-.921-.015-2.032.015-3.338.205,2.022,38.207,6.11,76.301,12.414,114.035-12.249-33.242-23.863-66.718-34.981-100.36-14.553,13.905-18.743,27.01-20.122,26.465-1.691-.672,1.788-20.979,13.062-47.936C34.707,840.443,16.364,776.736-.001,712.522v543.596c10.679,22.87,22.246,45.33,34.889,67.215,29.354,50.913,63.902,98.815,103.088,142.576,35.705,39.7,75.113,76.046,117.525,108.445l-98.095,5.079c-18.529,47.629-36.794,94.756-52.521,135.638.38,2.723.702,5.452,1.092,8.17,3.279,23.186,6.948,46.309,11.24,69.32,8.507,46.031,19.522,91.532,32.18,136.525,12.911,44.925,27.737,89.295,44.901,132.774l2.826,7.152-.935.215c7.23,17.544,14.87,34.913,22.918,52.092h132.695c6.567-7.318,13.15-14.65,20.356-21.354,8.132-7.376,16.311-14.704,25.354-21.062l.361.39c-6.977,8.555-14.582,16.394-22.002,24.419-5.724,6.046-11.747,11.8-17.714,17.608h34.007c7.415-8.088,14.752-16.283,22.791-23.766,8.399-7.649,16.828-15.279,26.095-21.983l.365.385c-7.186,8.891-15.05,17.038-22.752,25.34-6.553,6.899-13.486,13.413-20.331,20.024h36.467c4.077-4.254,8.009-8.721,12.74-12.287,4.774-3.634,9.797-6.977,15.405-9.442l.321.419c-3.834,4.76-8.049,8.911-12.287,13.028-3.016,2.952-6.314,5.593-9.573,8.283h49.763c2.061-2.1,4.078-4.239,6.143-6.334,6.168-6.324,12.127-12.863,18.733-18.728,6.616-5.856,13.374-11.562,20.74-16.643l.366.38c-5.369,7.157-11.337,13.685-17.452,20.063-6.124,6.367-12.896,12.063-19.463,17.973-1.213,1.106-2.456,2.188-3.669,3.289h49.286c7.128-6.426,14.222-12.901,21.403-19.26,6.421-5.744,12.648-11.727,19.474-16.989,6.835-5.247,13.802-10.339,21.33-14.762l.341.404c-5.676,6.631-11.917,12.594-18.285,18.402-6.382,5.798-13.364,10.874-20.151,16.18-6.811,5.398-13.724,10.684-20.589,16.024h450.442l9.413-22.845-12.706-148.218,12.024,35.21c11.372,17.817,22.075,36.015,32.506,54.358,10.836,19.396,21.189,39.05,31.902,58.509l.497.897-.668.745-19.162,21.344h368.591c-6.87-5.34-13.778-10.626-20.594-16.024-6.787-5.306-13.769-10.383-20.146-16.18-6.373-5.808-12.609-11.771-18.29-18.402l.341-.404c7.527,4.424,14.494,9.515,21.335,14.762,6.826,5.262,13.047,11.245,19.468,16.989,7.187,6.358,14.276,12.833,21.403,19.26h49.286c-1.213-1.101-2.456-2.183-3.669-3.289-6.563-5.91-13.335-11.605-19.464-17.973-6.11-6.378-12.083-12.906-17.447-20.063l.365-.38c7.362,5.082,14.119,10.787,20.736,16.643,6.606,5.866,12.565,12.404,18.733,18.728,2.065,2.095,4.087,4.234,6.148,6.334h49.758c-3.259-2.69-6.558-5.33-9.568-8.283-4.244-4.117-8.458-8.268-12.292-13.028l.321-.419c5.608,2.466,10.636,5.808,15.41,9.442,4.726,3.566,8.662,8.034,12.735,12.287h36.473c-6.845-6.611-13.783-13.126-20.336-20.024-7.702-8.302-15.561-16.448-22.752-25.34l.365-.385c9.272,6.704,17.695,14.333,26.1,21.983,8.034,7.484,15.371,15.678,22.786,23.766h34.012c-5.973-5.808-11.99-11.561-17.719-17.608-7.416-8.024-15.021-15.863-21.997-24.419l.356-.39c9.047,6.358,17.227,13.686,25.354,21.062,7.206,6.704,13.788,14.036,20.361,21.354h145.328c1.856-3.863,3.757-7.707,5.569-11.591,6.036-12.915,11.766-25.973,17.315-39.103l-2.728-.22,2.923-7.035c36.628-88.199,63.098-180.598,80.048-274.716ZM1692.807,1025.859l-8.234-96.121,7.825,22.913c7.347,11.542,14.338,23.279,21.008,35.2,7.113,12.526,13.769,25.311,20.735,37.914l.322.585-.439.482-41.11,45.802-.209-.181,39.493-46.338c-7.011-12.336-14.315-24.512-21.179-36.931-6.129-10.943-11.956-22.056-17.52-33.31l24.029,70.348-43.946,46.324,19.225-46.689ZM1571.298,1385.374c-7.888-14.577-11.907-30.957-12.901-47.274-1.272-16.384,1.149-32.774,4.935-48.511,3.883-15.771,9.384-31.074,16.122-45.787,6.782-14.694,14.786-28.843,24.292-41.968,9.54-13.033,20.551-25.335,34.329-34.275l.755-.492.765.492c17.101,11.026,37.3,17.379,57.753,17.486,10.212.078,20.443-1.33,30.285-4.17,9.939-2.865,19.03-7.02,28.233-12.55,14.339,8.579,25.203,20.633,35.094,33.505,9.769,12.945,17.856,27.084,24.838,41.719,6.928,14.665,12.707,29.939,16.633,45.787,3.879,15.791,6.402,32.297,5.204,48.852-.926,16.477-4.882,33.13-12.979,47.878-7.97,14.772-19.669,27.459-33.378,36.945-27.678,19.001-61.335,26.279-93.929,26.168-32.594-.39-65.987-8.165-93.207-27.201-13.491-9.486-25.028-21.992-32.843-36.604ZM1596.857,1427.634c28.453,14.597,67.999,28.984,114.162,25.91,49.851-3.318,85.992-25.579,86.796-23.678.858,2.022-38.216,33.491-89.436,34.139-39.941.506-81.003-10.597-111.522-36.37ZM852.468,994.05c-62.528,8.546-106.118,39.766-107.297,37.437-1.257-2.47,45.222-45.559,109.709-50.854,50.28-4.132,102.986,6.275,143.696,36.092-37.125-15.912-88.218-30.586-146.108-22.674ZM701.371,964.705c24.019-31.216,59.293-56.93,95.185-72.506,127.536-55.356,256.875,26.552,271.598,36.199-8.423-5.52-25.875-5.413-35.775-8.014-14.265-3.756-29.208-4.97-43.892-3.518,43.201,13.379,92.325,34.324,141.553,67.804,9.837,6.69,19.133,13.51,27.912,20.38-16.74-10.913-39.459-23.245-67.927-32.414-16.78-5.408-32.321-8.677-45.905-10.655,9.437,9.354,18.874,18.709,28.307,28.068-9.243-4.682-18.621-9.111-28.112-13.272-57.841-25.345-121.782-42.548-185.372-39.278-25.647,1.32-55.137,4.097-87.863,21.31-44.676,23.493-69.222,61.242-72.233,58.713-2.528-2.129,16.054-27.839,28.662-45.373,10.568-14.699,22.188-28.584,34.972-40.516-22.012,7.542-42.757,18.767-61.11,33.072ZM575.414,1004.505l8.843,25.905c8.317,13.038,16.165,26.338,23.795,39.761l23.376,42.894.361.663-.487.546-46.46,51.78-.234-.205,44.628-52.384-23.981-41.725c-6.845-12.419-13.466-24.964-19.756-37.695l27.157,79.537-49.651,52.37,21.72-52.779-9.31-108.667ZM440.725,1264.035c24.643-6.382,48.964-11.264,73.934-14.592,24.882-3.23,49.968-5.179,75.103-5.491,25.139-.219,50.299.95,75.327,3.562,25.038,2.528,49.885,6.874,74.44,12.414l2.475.555.814,2.431c9.413,27.975,12.95,57.851,10.582,87.176-1.925,29.373-10.032,58.309-23.62,84.389-6.485,13.228-15.215,25.193-24.385,36.667l-7.552,8.058-3.771,4.025-4.131,3.668-8.302,7.279c-2.938,2.222-5.983,4.307-8.97,6.46l-4.497,3.201c-1.55.999-3.196,1.842-4.784,2.767l-9.627,5.432-10.149,4.394-5.081,2.168-5.291,1.608-10.592,3.162-10.894,1.919-5.442.931-5.52.307-11.03.599-11.021-.716-5.505-.36-5.427-.989-10.845-2.026-10.534-3.264-5.252-1.656-5.047-2.217-10.051-4.477-9.525-5.506c-1.574-.94-3.201-1.792-4.726-2.801l-4.443-3.235c-2.948-2.173-5.949-4.273-8.843-6.509l-8.16-7.337-4.053-3.683-3.703-4.044-7.396-8.088c-8.964-11.498-17.456-23.464-23.693-36.653-13.096-26.007-20.706-54.699-22.206-83.687-1.93-29.042,1.792-58.08,11.395-85.841ZM395.031,1874.442l-43.352-199.881c-13.052,32.341-23.941,57.125-23.941,57.125l6.319,62.981-29.349-63.317c11.245-19.62,25.042-60.029,37.417-100.861l-8.853-40.81,128.65-6.476-66.891,291.24ZM641.294,2090.629c-9.93,7.147-19.946,14.173-30.056,21.087l-.322-.419c9.169-8.112,18.431-16.112,27.785-23.995,4.682-3.936,9.077-8.234,14.134-11.683,5.042-3.478,10.211-6.792,15.922-9.403l.326.419c-3.927,4.901-8.4,9.105-13.004,13.139-4.579,4.064-9.822,7.279-14.786,10.855ZM691.51,2091.648c-2.958,2.29-6.436,3.771-9.637,5.73-6.387,3.907-12.673,8.058-18.835,12.472l-.346-.395c5.17-5.574,10.782-10.772,16.765-15.532,2.986-2.373,5.812-5.062,9.272-6.758,3.435-1.715,7.03-3.157,11.05-3.698l.253.462c-2.611,3.079-5.539,5.447-8.521,7.718ZM743.914,2086.785c-2.904,2.461-6.363,4.131-9.515,6.285-6.295,4.282-12.458,8.843-18.46,13.681l-.37-.375c4.955-5.944,10.392-11.513,16.248-16.643,2.923-2.558,5.681-5.413,9.12-7.298,3.41-1.905,7.001-3.537,11.055-4.273l.272.448c-2.543,3.22-5.418,5.744-8.351,8.175ZM780.829,2089.319c-2.002,2.777-4.891,4.716-7.522,6.826-5.276,4.234-10.986,7.868-16.989,10.821l-.287-.448c5.15-4.21,9.953-8.716,14.417-13.471,2.241-2.382,4.024-5.15,6.48-7.274,2.446-2.163,4.945-4.273,8.098-6.022l.424.321c-.858,3.527-2.602,6.509-4.619,9.247ZM804.907,1652.017l-128.028-29.978c14.465,12.677,26.06,28.141,35.166,44.623,10.714,19.395,17.993,40.365,22.694,61.714,4.731,21.359,6.982,43.171,6.953,64.964-.176,21.787-2.689,43.566-7.898,64.725-5.077,21.169-12.662,41.866-23.59,60.862-10.811,18.987-24.945,36.458-42.821,49.612-2.952,2.178-6.051,4.171-9.204,6.071,23.776-2.002,44.336-4.838,60.945-7.59-14.919,11.961-33.568,19.191-52.648,20.414,34.465,4.014,69.281,4.979,103.912,2.884-107.332,40.458-238.293,24.662-345.961-6.616,37.929,3.44,76.019,5.121,114.104,5.028-91.556-19.547-110.854-25.013-110.62-26.236.385-2.041,54.299,10.007,124.978,13.744-3.644-2.046-7.211-4.214-10.612-6.616-18.348-12.887-33.125-30.211-44.545-49.217-22.836-38.285-32.886-82.903-33.612-127.063-.01-44.166,9.252-89.115,31.683-128.209,11.317-19.347,26.021-37.203,44.701-50.562,10.085-7.201,21.432-12.881,33.403-16.643l-71.573-16.76,28.255-1.422c-14.621-5.759-28.336-13.589-40.374-23.761,17.451,8.96,39.132,17.827,63.955,22.572l64.521-3.247,206.873,53.435,16.307,93.777-36.964-70.503ZM1215.267,2106.966c-6.002-2.952-11.712-6.587-16.994-10.821-2.626-2.11-5.515-4.049-7.518-6.826-2.022-2.738-3.761-5.72-4.623-9.247l.423-.321c3.153,1.749,5.657,3.859,8.098,6.022,2.461,2.124,4.244,4.892,6.485,7.274,4.458,4.755,9.266,9.262,14.412,13.471l-.283.448ZM1255.647,2106.752c-6.007-4.838-12.171-9.398-18.465-13.681-3.147-2.154-6.612-3.825-9.515-6.285-2.928-2.431-5.808-4.955-8.346-8.175l.273-.448c4.049.736,7.64,2.368,11.055,4.273,3.435,1.886,6.193,4.741,9.116,7.298,5.856,5.131,11.298,10.699,16.253,16.643l-.37.375ZM1308.542,2109.85c-6.163-4.414-12.448-8.565-18.835-12.472-3.196-1.959-6.679-3.44-9.632-5.73-2.987-2.271-5.915-4.638-8.521-7.718l.248-.462c4.019.541,7.62,1.983,11.055,3.698,3.459,1.695,6.28,4.385,9.272,6.758,5.983,4.76,11.591,9.958,16.765,15.532l-.351.395ZM1360.347,2111.716c-10.114-6.914-20.131-13.939-30.061-21.087-4.96-3.576-10.202-6.791-14.786-10.855-4.604-4.034-9.072-8.238-13.004-13.139l.326-.419c5.715,2.611,10.884,5.924,15.922,9.403,5.057,3.449,9.457,7.747,14.134,11.683,9.354,7.883,18.616,15.883,27.79,23.995l-.322.419Z" style="fill: #fff;"/>
      <path d="M2117.734,1605.358c-4.692-29.096-14.816-57.651-31.824-81.958-10.977-14.957-24.54-28.155-40.307-38.022-1.842-1.174-3.722-2.299-5.618-3.395l-121.066,6.265v363.422l-31.824-139.843c-2.981,26.153-6.606,52.238-10.986,78.201-15.557,92.165-40.472,182.819-74.718,269.971,11.172-.458,22.68-3.382,33.778-7.123,13.661-4.677,26.996-10.733,40.049-17.364,26.066-13.398,51.127-29.116,75.478-45.681,24.063-16.419,45.895-36.024,65.296-57.792,19.425-21.792,35.917-46.089,50.255-71.566,14.271-25.544,25.681-52.701,34.523-80.677,8.94-27.961,15.084-56.891,18.192-86.201,3.323-29.271,3.464-59.064-1.228-88.238Z" style="fill: #fff;"/>
      <path d="M106.078,1794.52c-3.303-19.966-6.148-40-8.629-60.077-22.036,57.456-37.641,99.049-39.313,105.84v-255.71l-56.54,2.923v387.519c.819.667,1.637,1.33,2.451,1.998,3.727,3.201,7.927,5.778,11.873,8.696,4.048,2.797,7.898,5.754,12.112,8.414,16.589,10.875,33.481,21.218,50.762,30.777,17.271,9.515,34.972,18.329,53.242,24.989,9.106,3.435,18.397,6.061,27.678,7.883,6.552,1.067,13.154,1.637,19.41,1.218-16.448-41.3-30.811-83.429-42.64-126.269-12.823-45.447-22.597-91.697-30.406-138.201Z" style="fill: #fff;"/>
      <path d="M2009.228,784.921c-19.698-11.05-41.393-24.448-64.097-40.57-6.967,8.36-11.089,20.224-11.167,33.291-.02,3.605.243,7.288.867,11.025,2.66,15.937,10.855,29.116,21.418,36.721,7.674,5.525,16.584,8.132,25.569,6.626,12.862-2.144,22.87-12.166,27.819-25.783.38-7.118.273-14.241-.409-21.31Z" style="fill: #c6c6c6;"/>
      <path d="M1409.068,732.4c-12.385-2.07-24.643,3.62-33.666,14.105-4.18,8.497-7.133,17.695-8.852,27.142-1.983,10.718-2.524,21.661-1.944,32.589,4.95,13.613,14.958,23.634,27.82,25.778,8.984,1.506,17.895-1.101,25.569-6.626,10.563-7.605,18.758-20.784,21.418-36.721.624-3.737.887-7.42.867-11.025-.132-22.918-12.755-42.163-31.211-45.242Z" style="fill: #c6c6c6;"/>
      <path d="M297.954,790.919c-12.346-7.133-27.653-5.91-41.412,1.71-7.717,7.313-14.392,15.864-19.917,25.115-6.344,10.568-11.25,21.939-14.962,33.739-.151,16.38,6.47,30.948,19.23,38.319,8.911,5.15,19.376,5.924,29.681,3.113,14.192-3.868,28.087-14.577,37.217-30.392,2.139-3.712,3.873-7.507,5.276-11.332,8.94-24.321,3.201-49.695-15.113-60.273Z" style="fill: #c6c6c6;"/>
      <path d="M590.736,1635.189c-16.852-9.73-37.744-8.064-56.516,2.333-10.534,9.973-19.644,21.637-27.181,34.26-8.657,14.412-15.352,29.915-20.419,46.012-.205,22.343,8.828,42.216,26.241,52.267,12.166,7.025,26.446,8.078,40.507,4.249,19.366-5.276,38.323-19.883,50.786-41.457,2.919-5.062,5.286-10.241,7.201-15.454,12.2-33.174,4.365-67.785-20.618-82.211Z" style="fill: #c6c6c6;"/>
      <path d="M1380.849,1635.189c-24.984,14.426-32.823,49.037-20.623,82.211,1.915,5.213,4.283,10.392,7.206,15.454,12.458,21.573,31.415,36.18,50.782,41.457,3.893,1.062,7.8,1.768,11.679,2.046l-29.189-147.336c-6.953.648-13.686,2.607-19.854,6.168Z" style="fill: #c6c6c6;"/>
      <path d="M1933.965,777.642c-17.208-3.42-37.155,11.488-46.08,35.342-9.598,25.656-2.806,51.907,15.172,58.631,17.973,6.728,40.331-8.614,49.929-34.27,1.496-4,2.548-8.005,3.264-11.956-10.563-7.605-18.758-20.784-21.418-36.721-.624-3.737-.887-7.42-.867-11.025Z"/>
      <path d="M1972.922,852.701c1.739,1.091,3.615,1.968,6.071,1.988-.965-2.261-2.499-3.654-4.171-4.833-1.734-1.097-3.615-1.978-6.071-1.988.955,2.261,2.495,3.654,4.171,4.833Z"/>
      <path d="M1962.086,868.823c3.82,3.474,8.049,6.543,12.979,8.443-3.343-4.073-7.002-7.484-10.65-10.947-3.722-3.396-7.386-6.797-11.703-9.822,2.251,4.779,5.622,8.78,9.374,12.326Z"/>
      <path d="M1942.715,878.387c1.579,3.819,3.946,6.948,6.499,9.905,2.641,2.884,5.461,5.603,9.062,7.634-1.588-3.815-3.951-6.943-6.499-9.905-2.631-2.889-5.457-5.608-9.062-7.635Z"/>
      <path d="M1926.184,889.968c.594,4.249,1.876,8.029,3.201,11.824,1.427,3.757,2.875,7.474,5.145,11.114.346-4.283-.565-8.38-1.93-12.282-1.461-3.869-3.391-7.596-6.416-10.655Z"/>
      <path d="M1905.711,909.31c-.877,5.013-1.632,10.036-1.52,15.323,2.519-4.658,3.902-9.647,4.882-14.699.882-5.072,1.374-10.226.692-15.479-1.983,4.901-3.074,9.861-4.053,14.855Z"/>
      <path d="M1876.075,929.285c3.177-7.03,5.832-14.032,8.76-20.97,2.826-6.972,5.905-13.803,8.633-21.018-5.052,5.846-8.809,12.643-11.796,19.708-2.894,7.108-5.042,14.572-5.598,22.28Z"/>
      <path d="M1867.344,885.802c-3.81,2.909-7.63,5.724-11.265,9.228,4.931-1.126,9.325-3.567,13.311-6.49,3.927-3.001,7.508-6.524,9.988-10.933-4.38,2.499-8.166,5.369-12.034,8.195Z"/>
      <path d="M1867.958,861.744c.984-.502,1.813-1.198,2.592-1.476.819-.297,1.969-.663,2.339.467.302-.511-.093-1.364-.716-1.612-.58-.331-1.203-.448-1.836-.507-1.365-.015-2.417.434-3.42.682-2.066.584-4.063,1.354-6.041,2.153-3.912,1.715-7.727,3.673-11.128,6.587,4.463-.424,8.516-1.813,12.463-3.439,1.954-.868,3.888-1.769,5.749-2.855Z"/>
      <path d="M1870.15,841.564c-3.396-2.348-7.401-3.347-11.391-3.645-3.995-.204-8.098.282-11.762,2.202,4.044.765,7.766.93,11.547,1.208,3.786.185,7.503.487,11.605.234Z"/>
      <path d="M1871.095,824.721c-2.241-3.152-5.418-5.267-8.789-6.806-3.415-1.452-7.123-2.358-10.962-1.866,3.197,2.139,6.377,3.537,9.588,4.994,3.245,1.369,6.421,2.767,10.163,3.678Z"/>
      <path d="M1874.847,809.798c-1.398-3.391-4.127-5.91-7.177-7.703-3.094-1.71-6.65-2.772-10.285-2.236,2.972,2.095,5.788,3.566,8.594,5.208,2.845,1.569,5.549,3.24,8.868,4.731Z"/>
      <path d="M1717.528,1026.225l-24.029-70.348c5.564,11.255,11.391,22.368,17.52,33.31,6.864,12.419,14.168,24.594,21.179,36.931l-39.493,46.338.209.181,41.11-45.802.439-.482-.322-.585c-6.967-12.604-13.622-25.388-20.735-37.914-6.67-11.922-13.661-23.659-21.008-35.2l-7.825-22.913,8.234,96.121-19.225,46.689,43.946-46.324Z"/>
      <path d="M1596.857,1427.634c30.518,25.773,71.58,36.877,111.522,36.37,51.22-.648,90.294-32.117,89.436-34.139-.804-1.9-36.944,20.36-86.796,23.678-46.163,3.074-85.71-11.313-114.162-25.91Z"/>
      <path d="M1824.655,1386.066c8.098-14.748,12.053-31.401,12.979-47.878,1.198-16.555-1.325-33.061-5.204-48.852-3.927-15.848-9.705-31.123-16.633-45.787-6.982-14.636-15.069-28.774-24.838-41.719-9.89-12.872-20.755-24.926-35.094-33.505-9.203,5.53-18.295,9.686-28.233,12.55-9.842,2.84-20.073,4.248-30.285,4.17-20.453-.107-40.652-6.46-57.753-17.486l-.765-.492-.755.492c-13.778,8.94-24.789,21.242-34.329,34.275-9.506,13.125-17.51,27.274-24.292,41.968-6.738,14.713-12.238,30.017-16.122,45.787-3.786,15.737-6.207,32.127-4.935,48.511.994,16.316,5.013,32.696,12.901,47.274,7.815,14.611,19.352,27.118,32.843,36.604,27.221,19.035,60.613,26.811,93.207,27.201,32.594.112,66.25-7.167,93.929-26.168,13.71-9.486,25.408-22.173,33.378-36.945ZM1638.917,1170.458c17.51,10.699,37.939,16.682,58.431,16.458,10.397-.083,20.76-1.681,30.675-4.721,9.812-2.996,19.61-7.542,27.844-12.984,9.252,6.753,17.515,15.293,24.755,24.565-3.488,1.476-7.054,2.914-10.821,4.21-9.077,3.118-34.031,10.835-66.664,8.877-18.675-1.125-32.136-4.765-41.802-7.786-12.424-3.883-24.984-9.841-35.688-17.71,4.126-3.995,8.541-7.664,13.271-10.908ZM1786,1415.459c-12.614,8.896-27.079,15.205-42.134,19.337-15.065,4.161-30.782,6.173-46.519,6.338-31.317.112-63.492-6.923-89.373-24.648-12.853-8.809-23.796-20.404-31.303-34.051-7.576-13.617-11.6-29.071-12.74-44.711-.653-7.24-.526-14.509.122-21.758,30.787-17.866,83.195-31.932,135.536-28.643,51.517,3.24,103.522,23.342,130.181,45.456-.083,1.617-.175,3.235-.331,4.853-1.208,15.488-5.301,30.665-12.672,44.117-7.352,13.476-18.129,24.891-30.767,33.71Z"/>
      <path d="M1417.993,825.389c.716,3.951,1.769,7.956,3.264,11.956,9.598,25.656,31.956,40.998,49.929,34.27,17.978-6.724,24.77-32.974,15.172-58.631-8.925-23.853-28.872-38.762-46.08-35.342.019,3.605-.243,7.288-.867,11.025-2.66,15.937-10.855,29.116-21.418,36.721Z"/>
      <path d="M1405.492,847.868c-2.455.01-4.336.891-6.071,1.988-1.671,1.179-3.206,2.572-4.17,4.833,2.456-.019,4.331-.897,6.071-1.988,1.676-1.179,3.215-2.572,4.17-4.833Z"/>
      <path d="M1409.828,866.319c-3.649,3.464-7.308,6.874-10.65,10.947,4.931-1.9,9.16-4.97,12.979-8.443,3.751-3.547,7.123-7.547,9.374-12.326-4.317,3.026-7.98,6.426-11.703,9.822Z"/>
      <path d="M1422.471,886.021c-2.553,2.962-4.916,6.09-6.505,9.905,3.601-2.032,6.422-4.75,9.063-7.634,2.553-2.958,4.921-6.086,6.499-9.905-3.605,2.027-6.431,4.745-9.057,7.635Z"/>
      <path d="M1439.713,912.906c2.271-3.64,3.717-7.357,5.145-11.114,1.33-3.795,2.606-7.576,3.201-11.824-3.026,3.06-4.955,6.787-6.417,10.655-1.364,3.902-2.275,8-1.929,12.282Z"/>
      <path d="M1464.478,894.455c-.682,5.252-.19,10.407.692,15.479.979,5.052,2.363,10.041,4.886,14.699.107-5.286-.648-10.31-1.525-15.323-.979-4.994-2.071-9.954-4.054-14.855Z"/>
      <path d="M1489.413,908.316c2.924,6.938,5.579,13.939,8.755,20.97-.555-7.708-2.704-15.172-5.598-22.28-2.986-7.065-6.743-13.861-11.795-19.708,2.728,7.215,5.807,14.046,8.638,21.018Z"/>
      <path d="M1504.853,888.54c3.985,2.923,8.379,5.364,13.31,6.49-3.635-3.503-7.454-6.319-11.264-9.228-3.869-2.826-7.654-5.696-12.034-8.195,2.48,4.409,6.061,7.931,9.988,10.933Z"/>
      <path d="M1507.327,859.298c-1.003-.249-2.056-.697-3.42-.682-.634.059-1.257.176-1.837.507-.624.248-1.018,1.101-.716,1.612.37-1.13,1.52-.765,2.338-.467.78.278,1.608.974,2.592,1.476,1.861,1.087,3.795,1.988,5.749,2.855,3.946,1.627,8,3.015,12.463,3.439-3.401-2.914-7.211-4.872-11.128-6.587-1.978-.799-3.976-1.569-6.042-2.153Z"/>
      <path d="M1515.483,837.919c-3.99.297-7.995,1.296-11.391,3.645,4.102.253,7.82-.049,11.605-.234,3.781-.278,7.503-.444,11.547-1.208-3.663-1.92-7.766-2.407-11.761-2.202Z"/>
      <path d="M1503.147,824.721c3.742-.911,6.918-2.309,10.163-3.678,3.21-1.457,6.392-2.855,9.593-4.994-3.844-.492-7.552.414-10.967,1.866-3.372,1.54-6.548,3.654-8.789,6.806Z"/>
      <path d="M1516.857,799.859c-3.635-.536-7.191.526-10.285,2.236-3.05,1.793-5.778,4.312-7.177,7.703,3.318-1.491,6.022-3.162,8.867-4.731,2.806-1.642,5.623-3.113,8.594-5.208Z"/>
      <path d="M1219.525,828.604c7.474,23.065,15.211,46.041,23.279,68.901-1.452,27.702,2.192,47.239,3.868,47.269,1.121.02.877-8.76,5.52-21.223,1.262,3.464,2.48,6.947,3.752,10.407-.794-4.755-1.476-9.53-2.198-14.3.916-2.11,1.969-4.297,3.196-6.553,6.655-12.214,12.161-14.894,15.377-16.029,5.164-1.822,10.952-1.203,16.087.692,5.145,1.89,9.744,4.979,14.207,8.156,13.788,9.802,26.066,20.653,37.603,32.998,11.245,12.039,24.462,25.447,32.623,39.854-7.99-14.114-16.755-27.79-26.231-40.95,8.804,8.882,17.871,17.505,27.196,25.851-11.595-12.784-22.217-26.446-31.747-40.832,5.165,3.615,9.988,7.713,14.397,12.219-23.094-23.093-38.918-54.012-41.583-86.888-1.257-15.493.526-31.249,5.164-46.08,3.917-12.526,9.881-24.394,17.783-34.884,8.584-11.405,19.278-21.096,30.674-29.705.897-.677,1.842-1.364,2.767-2.056-6.723,11.342-10.845,23.971-13.047,36.711-4.736,28.843-.146,58.245,9.9,85.071,10.475,26.66,26.718,51.474,49.29,69.534,11.255,8.95,24.166,16.117,38.241,19.771,3.518.926,7.108,1.608,10.738,2.032-27.293,11.099-52.735,25.598-74.187,44.355,20.555-9.145,41.924-16.472,63.77-21.866-11.313,5.082-20.999,13.71-27.337,24.365,19.708-11.342,49.637-26.796,88.102-39.859,48.579-16.502,90.05-22.143,89.802-23.576-.136-.799-13.096.268-73.149,9.203,23.113-8.711,46.626-16.346,70.445-22.874-27.259,2.056-56.014,6.192-84.272,13.155,4.507-4.195,8.502-8.916,11.829-14.022,7.864-12.053,12.483-25.88,14.733-39.868,2.319-14.022,2.222-28.317.497-42.329-1.646-14.037-5.072-27.834-9.915-41.105-4.935-13.242-11.259-25.983-18.986-37.875-7.708-11.903-16.896-22.987-27.81-32.331-4.867-4.166-10.105-7.98-15.649-11.333-.331-2.426-.682-4.843-.984-7.269,18.699,5.31,37.028,15.737,51.761,25.793,23.912,16.322,44.579,36.887,65.1,57.325-18.192-26.358-39.244-50.743-62.664-72.584,15.415,4.955,30.236,11.761,44.038,20.219-14.894-17.028-48.384-49.904-100.642-61.437l-.741-.146c-.36-4.799-.585-9.603-.838-14.407,32.775,11.371,54.002,27.162,56.341,28.969-10.835-9.758-30.158-25.12-56.764-36.238-1.136-28-.302-56.073,2.304-83.97,11.815-.38,24.024-.419,36.643-.044,15.411.453,30.236,2.134,30.236,2.134,5.886.663,10.241,1.291,12.185,1.583,21.125,50.246,45.929,105.349,74.952,164.15,38.781,78.591,63.922,103.025,61.086,93.446-39.975-135.131-17.023-279.827,6.553-418.827h.151l.74.014.331.009c17.949,50.991,47.941,117.5,99.244,185.665,22.645,30.085,46.45,56.521,70.406,79.722-6.085,4.54-11.162,8.823-15.079,12.355,1.159-.896,7.035-5.281,16.652-10.845,2.3,2.217,4.604,4.404,6.909,6.558-34.611,14.913-57.763,37.963-69.441,51.307,13.803-8.458,28.623-15.264,44.033-20.219-23.415,21.841-44.467,46.226-62.659,72.584,20.521-20.438,41.188-41.003,65.1-57.325,13.603-9.286,30.285-18.879,47.483-24.482,1.832,1.559,3.663,3.108,5.491,4.633-6.378,3.645-12.336,7.941-17.847,12.658-10.913,9.344-20.102,20.428-27.81,32.331-7.727,11.892-14.051,24.633-18.987,37.875-4.843,13.271-8.268,27.069-9.915,41.105-1.725,14.012-1.822,28.307.497,42.329,2.251,13.988,6.87,27.815,14.734,39.868,3.327,5.106,7.322,9.827,11.829,14.022-28.258-6.962-57.013-11.099-84.272-13.155,23.82,6.529,47.333,14.163,70.446,22.874-60.053-8.935-73.013-10.002-73.149-9.203-.249,1.432,41.222,7.074,89.802,23.576,38.465,13.062,68.394,28.517,88.101,39.859-6.339-10.655-16.024-19.284-27.337-24.365,21.846,5.394,43.216,12.721,63.771,21.866-21.452-18.757-46.894-33.257-74.187-44.355,3.63-.424,7.22-1.106,10.738-2.032,14.075-3.654,26.986-10.821,38.246-19.771,22.567-18.061,38.811-42.874,49.286-69.534,8.029-21.432,12.477-44.511,11.562-67.639,14.119,7.674,27.055,14.095,38.436,19.425,3.176,12.76,4.307,26.051,3.245,39.157-2.67,32.877-18.49,63.795-41.583,86.888,4.409-4.506,9.233-8.604,14.397-12.219-9.53,14.387-20.151,28.048-31.746,40.832,9.325-8.346,18.392-16.969,27.196-25.851-9.477,13.159-18.241,26.835-26.231,40.95,8.16-14.407,21.378-27.815,32.623-39.854,11.537-12.346,23.815-23.196,37.603-32.998,4.463-3.177,9.062-6.266,14.207-8.156,5.135-1.895,10.923-2.514,16.087-.692,3.215,1.135,8.721,3.815,15.376,16.029,1.617,2.982,2.928,5.847,4.02,8.565v-81.87c-1.131-3.635-2.373-7.283-3.737-10.933-.984-2.641-3.372-8.102-8.244-17.374-8.692-16.56-22.874-40.087-45.812-67.117,9.735,6.601,21.101,15.532,32.501,27.405,10.738,11.176,18.962,22.328,25.291,32.375v-11.673c-4.409-11.41-10.582-24.112-19.489-37.013-23.537-34.104-60.701-61.924-103.229-75.639-3.386-10.144-6.514-20.365-9.437-30.645,15.897,1.427,32.555,4.936,49.715,11.41,37.3,14.081,63.775,37.018,82.44,60.687V.003h-920.114c-8.892,8.005-17.705,16.268-26.412,24.828l9.847,176.954,34.883,626.82ZM1334.696,563.72c-4.311,1.968-8.662,4.019-13.077,6.217.468-17.359,2.012-34.68,4.74-51.829-2.188,13.768,1.554,29.515,8.336,45.612ZM1346.705,587.753c10.835,19.074,23.99,37.5,34.684,52.536-18.509,2.124-36.37,7.143-53.11,14.407-3.625-19.493-5.808-39.249-6.539-59.064,7.903-2.747,16.219-5.388,24.965-7.878ZM1289.77,608.197c7.308,18.119,15.669,35.805,25.008,52.969-27.424,14.436-51.171,35.001-68.798,58.757,2.304-32.199,6.343-64.267,12.063-96.033,9.228-5.116,19.824-10.441,31.727-15.693ZM1261.756,604.323c3.147-15.503,6.704-30.918,10.665-46.235,3.162,11.045,6.787,21.953,10.694,32.755-6.869,4.039-14.022,8.482-21.359,13.481ZM1272.411,755.469c-16.326,23.654-23.683,46.806-27.274,62.075,6.806-12.843,17.267-29.3,33.076-45.763,11.401-11.873,22.762-20.804,32.502-27.405-22.938,27.03-37.121,50.557-45.812,67.117-4.872,9.272-7.26,14.733-8.244,17.374-4.355,11.654-7.464,23.299-9.652,34.485-3.795-43.78-4.316-87.839-1.739-131.711,16.229-23.405,39.669-47.23,73.188-63.697,5.632,9.988,11.654,19.746,17.949,29.325-25.861,14.909-48.058,35.108-63.995,58.202ZM1338.311,696.157c-3.289-10.987-6.095-22.105-8.424-33.33,1.817-.75,3.605-1.525,5.476-2.232,18.041-6.811,35.537-10.353,52.17-11.625,1.257,1.803,2.475,3.552,3.605,5.203,4.263,6.246,8.419,12.56,12.628,18.84-23.186,3.79-45.398,11.863-65.456,23.142ZM1497.92,817.223c-10.256-31.824-17.778-64.492-22.699-97.558,4.083,2.358,8.039,4.974,11.81,7.839,22.124,16.818,38.694,40.779,48.867,66.942,4.823,13.213,8.229,26.948,9.861,40.911,1.54,13.959,1.179,28.151-1.413,41.909-2.665,13.72-7.698,27.05-15.615,38.397-4.872,7.079-10.967,13.301-17.973,18.129-11.41,3.064-22.713,6.578-33.754,10.651-6.762.092-13.554-.829-20.083-2.656-13.193-3.635-25.393-10.616-36.029-19.347-21.349-17.613-36.682-41.783-46.377-67.605-5.525-15.644-9.033-32.107-9.91-48.599-.58-10.928-.039-21.871,1.944-32.589,1.72-9.447,4.672-18.645,8.852-27.142,1.744-3.547,3.635-7.002,5.837-10.251,5.934-8.926,13.827-16.439,23.088-21.53,1.696-.867,3.406-1.695,5.126-2.499.599-.258,1.184-.551,1.798-.789,5.018-1.91,10.29-3.06,15.649-3.581,23.815,36.37,47.22,73.037,71.02,109.368ZM1529.408,523.569c-1.929-.073-3.859-.146-5.788-.18-8.195-.137-23.878-.575-46.84,1.89,4.862-29.437,11.756-58.543,20.872-86.962,8.921,24.555,19.069,51.449,30.577,80.404-2.777-.974-5.588-1.841-8.453-2.494,3.21,2.446,6.421,4.892,9.632,7.342ZM2036.424,767.211c7.903,10.49,13.866,22.358,17.783,34.884.546,1.754,1.053,3.523,1.52,5.296-8.628-15.021-16.643-30.392-24.126-46.012,1.647,1.91,3.303,3.815,4.823,5.832ZM2009.228,784.921c.682,7.069.789,14.193.409,21.31-.877,16.492-4.385,32.96-9.91,48.604-9.695,25.822-25.028,49.992-46.372,67.605-10.641,8.731-22.84,15.712-36.034,19.347-6.529,1.827-13.32,2.748-20.083,2.656-11.04-4.073-22.343-7.586-33.754-10.651-7.006-4.828-13.101-11.05-17.973-18.129-7.917-11.347-12.95-24.677-15.615-38.397-2.592-13.759-2.952-27.951-1.413-41.909,1.637-13.963,5.038-27.697,9.861-40.911,10.172-26.163,26.743-50.123,48.867-66.942,6.241-4.736,12.964-8.824,20-12.073,12.828,10.49,25.525,20.122,37.919,28.921,22.703,16.122,44.399,29.52,64.097,40.57ZM1962.018,458.809c14.836,29.52,30.709,61.003,47.825,92.643-15.527-5.749-29.963-10.115-42.913-13.457-3.099-26.28-4.813-52.721-4.911-79.186ZM1986.456,639.69c-5.706-21.154-10.407-42.577-14.134-64.17,21.189,3.439,40.599,7.956,58.265,13.116,18.484,32.092,38.396,63.576,59.965,92.662-29.281-22.962-65.442-38.591-104.096-41.607Z"/>
      <path d="M137.975,1465.909c-39.186-43.761-73.734-91.663-103.088-142.576-12.643-21.885-24.21-44.346-34.889-67.215v350.341l58.138-2.928v236.753c1.671-6.791,17.276-48.384,39.313-105.84,2.48,20.078,5.325,40.111,8.629,60.077,7.81,46.504,17.583,92.754,30.406,138.201,11.829,42.84,26.192,84.969,42.64,126.269-6.256.419-12.858-.151-19.41-1.218-9.282-1.822-18.573-4.448-27.678-7.883-18.27-6.66-35.971-15.474-53.242-24.989-17.281-9.559-34.173-19.902-50.762-30.777-4.214-2.66-8.063-5.618-12.112-8.414-3.946-2.918-8.146-5.495-11.873-8.696-.814-.667-1.632-1.33-2.451-1.998v146.303h217.509c-8.049-17.179-15.688-34.548-22.918-52.092l.935-.215-2.826-7.152c-17.164-43.478-31.99-87.848-44.901-132.774-12.657-44.993-23.673-90.493-32.18-136.525-4.292-23.011-7.961-46.134-11.24-69.32-.39-2.718-.711-5.447-1.092-8.17,13.578-35.295,29.05-75.249,44.947-116.158l114.296-5.755,15.79-.794c-3.893-2.772-7.795-5.53-11.644-8.37-47.313-34.752-91.025-74.416-130.299-118.084Z"/>
      <path d="M269.297,906.869c0,30.967,17.583,56.068,39.274,56.068s39.269-25.101,39.269-56.068c0-28.794-15.206-52.487-34.772-55.678-1.403,3.824-3.138,7.62-5.276,11.332-9.13,15.815-23.025,26.524-37.217,30.392-.799,4.468-1.277,9.125-1.277,13.954Z"/>
      <path d="M41.986,951.449c1.379.545,5.569-12.56,20.122-26.465,11.118,33.641,22.733,67.117,34.981,100.36-6.304-37.734-10.392-75.829-12.414-114.035,1.306-.19,2.417-.22,3.338-.205,6.192.122,12.068,3.065,16.755,7.104,4.692,4.039,8.341,9.135,11.81,14.265,10.704,15.844,19.405,32.195,26.718,49.837,7.138,17.208,15.82,36.638,18.753,55.127-2.87-18.11-6.728-36.068-11.552-53.758,5.803,12.897,11.985,25.623,18.548,38.153-7.206-18.129-13.038-36.804-17.423-55.814,4.029,5.876,7.517,12.122,10.392,18.64-15.293-33.598-19.795-72.603-9.598-108.472,4.804-16.901,12.93-32.876,23.712-46.742,9.111-11.708,20.117-21.915,32.633-29.89,13.608-8.677,28.765-14.699,44.233-19.298,1.218-.361,2.485-.721,3.742-1.077-11.605,9.335-20.969,21.077-28.345,33.695-16.438,28.662-23.225,61.617-23.215,93.997.531,32.375,7.898,65.086,24.628,93.154,8.37,13.934,19.196,26.635,32.643,36.082,3.357,2.373,6.889,4.522,10.562,6.402-33.276.94-65.953,6.212-96.081,17.574,25.378-1.535,50.893-.828,76.15,2.114-13.983.897-27.649,6.197-38.577,14.962,25.345-4.195,63.142-8.701,109.022-7.293,57.949,1.779,104.077,12.234,104.379,10.616.171-.897-13.973-4.901-81.061-19.235,27.907-.068,55.819,1.164,83.614,3.688-29.661-8.618-61.739-15.634-94.396-19.459,6.426-2.655,12.526-6.071,18.066-10.158,13.101-9.647,23.459-22.456,31.381-36.375,8.009-13.924,13.568-29.101,17.286-44.619,3.82-15.517,5.661-31.483,5.788-47.454.019-15.98-1.627-31.97-5.091-47.629-3.445-15.649-8.78-31.025-16.633-45.247-7.83-14.173-18.143-27.347-31.449-37.373-1.15-.867-2.353-1.676-3.557-2.49l.467.146c28.039,10.188,52.224,37.607,68.872,61.246,18.845,26.762,32.575,56.721,46.197,86.489-8.818-35.113-21.437-69.271-37.574-101.68,14.348,11.357,27.337,24.434,38.597,38.86-9.023-23.932-31.445-72.009-82.177-104.925-14.933-9.686-30.792-17.032-47.123-22.29-.677-9.018-1.184-18.041-1.515-27.074,64.223,29.276,98.279,82.128,100.881,86.328-11.79-22.694-39.742-67.78-94.012-94.455-2.353-1.155-4.721-2.246-7.094-3.299-.526-25.296.268-50.606,2.441-75.809,15.703,1.764,31.897,4.097,48.706,7.254,17.12,3.22,33.378,7.698,33.378,7.698,8.848,2.441,14.563,4.312,14.563,4.312.691.224,1.344.453,2.031.687,21.876,51.078,47.01,106.279,75.839,164.71,43.824,88.847,72.238,116.472,69.032,105.641-45.427-153.616-18.953-318.161,7.844-476.098,16.341,46.967,41.812,105.977,82.172,168.276l-.117.058c3.898,17.315,7.795,34.631,11.698,51.946,5.062-2.358,11.489-5.189,19.025-8.17l.312.424c48,63.809,100.642,113.115,150.298,150.927-.838.063-1.676.073-2.514.141-23.24,1.871-46.718,6.139-67.356,16.999-9.564,5.033-43.98,25.783-28.794,37.442,10.753,8.253,37.963-13.126,48.72-17.014,26.553-9.598,54.923-13.223,83.254-13.539,44.014,30.07,84.053,51.025,114.167,65.1-11.001-19.021-21.101-38.553-30.47-58.426,51.678,8.248,102.094,24.565,144.476,54.757-44.282-37.719-97.923-64.048-154.586-77.081-26.328-60.613-45.173-124.471-55.917-189.684,20.604.634,39.859,2.329,57.661,4.8,41.368,73.768,89.105,146.259,145.645,199.701-2.461-27.941-2.752-70.645,11.001-119.892,2.163-7.751,4.56-15.079,7.074-22.129,25.486,19.05,44.686,36.555,58.036,49.792,8.589,8.522,14.392,14.285,19.366,19.795,2.402,8.019,4.799,16.039,7.045,24.102l-28.838-569.696L1172.412.003H-.001v712.52c16.365,64.214,34.708,127.921,55.05,190.99-11.274,26.957-14.753,47.264-13.062,47.936ZM900.239,575.457c-3.333-28.965-5.174-58.104-5.281-87.268,15.328,30.514,31.62,62.874,49.081,95.541-15.557-3.659-30.236-6.349-43.8-8.273ZM1202.901,741.112c-18.962-22.227-44.053-48.102-73.734-70.679,8.721-23.064,18.811-42.128,27.829-56.833,17.481,41.68,32.775,84.267,45.905,127.512ZM181.035,593.259c-2.952.925-5.954,1.949-8.945,2.953.901-13.725,2.412-27.406,4.57-40.989-1.856,11.674.068,24.619,4.375,38.037ZM191.943,619.534c10.134,20.365,23.615,40.682,36.014,58.421-17.973,2.158-35.561,6.441-52.268,12.565-3.181-22.334-4.716-44.901-4.565-67.459,6.694-1.286,13.637-2.461,20.818-3.527ZM126.516,633.819c7.951,22.45,17.276,44.404,27.936,65.7-18.241,8.828-35.021,19.902-49.51,32.804-5.885,5.242-11.166,10.597-15.931,15.922,3.849-36.267,9.637-72.326,17.335-107.975,6.29-2.188,13.013-4.346,20.17-6.451ZM110.565,621.449c1.656-7.02,3.333-14.041,5.145-21.028,1.555,5.432,3.274,10.811,4.989,16.195-3.459,1.603-6.835,3.215-10.134,4.833ZM114.058,817.544c-8.823,7.893-13.51,12.731-15.601,15.133-5.525,6.358-10.572,12.887-15.186,19.464.146-31.995,1.73-63.975,4.857-95.819,16.453-16.799,39.688-35.999,69.607-50.148,6.314,12.224,13.125,24.185,20.302,35.922-12.009,5.408-23.371,11.805-33.846,19.108-26.645,18.577-43.6,40.18-53.447,54.923,12.287-10.903,29.876-24.19,53.13-35.351,16.769-8.054,32.331-13.008,45.247-16.141-34.977,19.532-59.303,38.826-75.064,52.911ZM185.273,738.987c-3.439-13.447-6.236-27.059-8.428-40.77,17.145-6.177,36.16-10.489,56.974-11.941,5.988,8.448,11.527,16.151,16.044,22.772,2.977,4.365,5.871,8.794,8.833,13.179-25.53,1.593-50.523,7.396-73.422,16.76ZM370.519,893.373c-11.976-37.198-20.628-75.429-26.168-114.104,2.178,1.208,4.322,2.485,6.392,3.888,12.667,8.502,23.317,20.258,31.664,33.471,16.755,26.572,24.804,58.504,25.208,90.24-.132,15.898-1.963,31.785-5.764,47.22-3.902,15.391-9.905,30.275-18.09,43.819-8.258,13.466-18.865,25.583-31.737,34.465-7.961,5.564-16.877,9.734-26.202,12.073-13.291-1.277-26.641-2.037-39.941-2.1-7.191-2.577-14.012-6.246-20.199-10.762-12.526-9.082-22.665-21.306-30.47-34.762-15.62-27.108-22.27-58.772-22.304-89.953.346-18.758,3.152-37.578,8.755-55.386,3.712-11.8,8.618-23.171,14.962-33.739,5.525-9.251,12.2-17.802,19.917-25.115,3.298-3.123,6.762-6.042,10.44-8.653,7.518-5.442,15.927-9.569,24.765-11.98,26.402,40.375,52.375,81.057,78.772,121.378ZM345.413,570.341c5.52-35.678,13.783-70.932,24.804-105.324,12.2,33.573,26.426,71.03,42.933,111.78-11.24-1.978-33.588-6.012-67.737-6.456Z"/>
      <path d="M242.116,915.225c2.241-.58,4.419-1.447,6.328-3.464-2.606-.96-4.94-.77-7.211-.297-2.241.59-4.414,1.457-6.324,3.464,2.602.955,4.936.765,7.206.297Z"/>
      <path d="M261.998,927.253c-5.759,1.496-10.986,3.644-16.268,5.764-5.237,2.222-10.46,4.38-15.606,7.372,5.964-.059,11.664-1.632,17.077-3.801,5.369-2.27,10.528-5.164,14.796-9.335Z"/>
      <path d="M251.305,958.888c-3.873,2.119-7.615,4.497-10.807,7.907,4.614-.721,8.682-2.48,12.614-4.492,3.878-2.114,7.615-4.492,10.806-7.912-4.619.716-8.687,2.475-12.614,4.497Z"/>
      <path d="M265.814,981.943c-2.987,3.591-5.579,7.566-6.909,12.243,3.844-2.957,6.85-6.319,9.846-9.734,2.914-3.488,5.759-6.987,8.068-11.25-4.409,2.041-7.931,5.223-11.006,8.741Z"/>
      <path d="M286.369,1018.624c2.212-5.559,3.4-11.176,4.458-16.828.945-5.676,1.759-11.362,1.598-17.335-2.801,5.286-4.321,10.943-5.398,16.658-.96,5.739-1.476,11.571-.657,17.505Z"/>
      <path d="M313.321,1009.017c.351,8.502.385,16.965.965,25.666,2.465-8.38,3.147-17.13,2.899-25.802-.365-8.667-1.651-17.35-4.682-25.54.039,8.716.584,17.169.818,25.676Z"/>
      <path d="M331.255,978.664c.882,5.647,3.274,10.797,6.241,15.532,3.055,4.668,6.743,8.994,11.518,12.141-2.456-5.145-5.389-9.642-8.273-14.231-2.972-4.527-5.842-9.062-9.486-13.442Z"/>
      <path d="M346.198,961.943c-.755.02-1.511.765-1.393,1.422.838-1.047,1.915-.204,2.66.434.716.604,1.315,1.666,2.158,2.592,1.535,1.885,3.23,3.61,4.955,5.296,3.537,3.289,7.274,6.363,11.824,8.58-2.446-4.434-5.705-8.014-9.164-11.376-1.778-1.637-3.586-3.24-5.545-4.682-.964-.658-1.9-1.549-3.352-2.075-.692-.186-1.393-.312-2.144-.19Z"/>
      <path d="M380.37,951.794c-3.123-3.479-7.269-5.623-11.576-6.987-4.341-1.262-8.975-1.798-13.506-.657,4.244,1.895,8.302,3.05,12.38,4.355,4.107,1.198,8.117,2.504,12.701,3.289Z"/>
      <path d="M373.179,926.08c3.975-.273,7.893-.492,12.126-1.491-3.868-2.041-8.151-2.553-12.341-2.368-4.18.292-8.38,1.271-12.004,3.727,4.321.512,8.243.292,12.219.132Z"/>
      <path d="M385.32,905.051c-3.63-2.007-7.82-2.294-11.771-1.705-3.937.686-7.825,2.275-10.645,5.31,4.102-.263,7.625-.965,11.259-1.496,3.62-.629,7.177-1.067,11.157-2.11Z"/>
      <path d="M1157.952,1005.051c-8.78-6.87-18.076-13.69-27.912-20.38-49.227-33.481-98.352-54.425-141.553-67.804,14.684-1.452,29.627-.239,43.892,3.518,9.9,2.602,27.352,2.494,35.775,8.014-14.723-9.647-144.062-91.556-271.598-36.199-35.893,15.576-71.166,41.29-95.185,72.506,18.353-14.304,39.098-25.53,61.11-33.072-12.784,11.932-24.404,25.817-34.972,40.516-12.609,17.534-31.191,43.244-28.662,45.373,3.011,2.529,27.557-35.22,72.233-58.713,32.726-17.213,62.216-19.99,87.863-21.31,63.59-3.269,127.531,13.934,185.372,39.278,9.491,4.161,18.869,8.59,28.112,13.272-9.433-9.359-18.87-18.714-28.307-28.068,13.584,1.978,29.125,5.247,45.905,10.655,28.468,9.169,51.186,21.501,67.927,32.414Z"/>
      <path d="M854.88,980.632c-64.487,5.296-110.966,48.384-109.709,50.854,1.179,2.329,44.769-28.891,107.297-37.437,57.89-7.912,108.983,6.763,146.108,22.674-40.711-29.817-93.417-40.224-143.696-36.092Z"/>
      <path d="M669.907,1572.729c12.624-7.103,19.936-13.646,19.566-14.533-.536-1.267-16.96,8.293-42.66,15.698l23.094-1.165Z"/>
      <path d="M612.655,1113.581l-27.157-79.537c6.29,12.731,12.911,25.276,19.756,37.695l23.981,41.725-44.628,52.384.234.205,46.46-51.78.487-.546-.361-.663-23.376-42.894c-7.63-13.422-15.478-26.723-23.795-39.761l-8.843-25.905,9.31,108.667-21.72,52.779,49.651-52.37Z"/>
      <path d="M694.073,1483.23l3.771-4.025,7.552-8.058c9.169-11.474,17.9-23.439,24.385-36.667,13.588-26.08,21.695-55.016,23.62-84.389,2.368-29.325-1.169-59.201-10.582-87.176l-.814-2.431-2.475-.555c-24.555-5.54-49.402-9.886-74.44-12.414-25.028-2.611-50.187-3.781-75.327-3.562-25.135.312-50.221,2.261-75.103,5.491-24.969,3.328-49.291,8.209-73.934,14.592-9.603,27.761-13.325,56.799-11.395,85.841,1.5,28.988,9.11,57.68,22.206,83.687,6.236,13.189,14.728,25.155,23.693,36.653l7.396,8.088,3.703,4.044,4.053,3.683,8.16,7.337c2.894,2.236,5.895,4.336,8.843,6.509l4.443,3.235c1.525,1.009,3.152,1.861,4.726,2.801l9.525,5.506,10.051,4.477,5.047,2.217,5.252,1.656,10.534,3.264,10.845,2.026,5.427.989,5.505.36,11.021.716,11.03-.599,5.52-.307,5.442-.931,10.894-1.919,10.592-3.162,5.291-1.608,5.081-2.168,10.149-4.394,9.627-5.432c1.588-.925,3.235-1.769,4.784-2.767l4.497-3.201c2.987-2.153,6.032-4.239,8.97-6.46l8.302-7.279,4.131-3.668ZM473.115,1257.784c33.812-6.061,73.354-10.446,117.495-10.387,40.467.048,77.032,3.829,108.842,9.184.234,1.442.39,2.894.39,4.37l-.014.224c-.253,30.304-50.942,54.835-113.451,54.835s-113.461-24.653-113.461-55.059c0-.604.068-1.199.112-1.798.034-.453.034-.911.088-1.369ZM685.469,1482.031l-7.902,7.094c-2.797,2.158-5.7,4.185-8.546,6.285l-4.287,3.128c-1.471.974-3.04,1.793-4.56,2.699l-9.179,5.316-9.686,4.307-4.848,2.143-5.052,1.583-10.124,3.148-10.426,1.939-5.213.959-5.291.341-10.592.701-10.597-.585-5.301-.282-5.233-.906-10.47-1.832-10.182-3.045-5.091-1.54-4.892-2.095-9.773-4.224-9.281-5.237c-1.535-.891-3.128-1.7-4.619-2.665l-4.346-3.099c-2.884-2.08-5.827-4.092-8.662-6.231l-8.049-7.04-4.01-3.537-3.664-3.897-7.342-7.795c-4.994-6.236-9.812-12.653-14.236-19.328-.906-20.672,62.743-52.813,129.139-54.392,59.41-1.413,122.162,21.627,126.707,43.605-5.608,10.324-12.457,19.936-19.688,29.184l-7.181,7.825-3.586,3.917-3.936,3.557Z"/>
      <path d="M2121.32,1477.77v-176.8c-49.349,62.348-108.457,116.891-174.483,161.022-14.354,9.533-29.083,18.487-44.011,27.089l-65.645,3.4,45.154,198.415c-3.639,32.735-8.248,65.359-14.095,97.758-16.95,94.118-43.42,186.517-80.048,274.716l-2.923,7.035,2.728.22c-5.549,13.13-11.279,26.187-17.315,39.103-1.813,3.883-3.713,7.727-5.569,11.591h356.806v-643.58l-.599.031ZM1876.109,1790.028c4.38-25.963,8.005-52.048,10.986-78.201l31.824,139.843v-359.462l127.066-6.574c15.6,9.838,29.038,22.932,39.924,37.767,17.008,24.307,27.133,52.862,31.824,81.958,4.692,29.174,4.55,58.966,1.228,88.238-3.108,29.31-9.252,58.24-18.192,86.201-8.843,27.975-20.253,55.132-34.523,80.677-14.338,25.476-30.83,49.773-50.255,71.566-19.401,21.768-41.233,41.374-65.296,57.792-24.351,16.565-49.413,32.282-75.478,45.681-13.052,6.631-26.387,12.687-40.049,17.364-11.099,3.742-22.606,6.665-33.778,7.123,34.246-87.152,59.162-177.806,74.718-269.971Z"/>
      <path d="M1041.051,2039.824c-10.431-18.343-21.135-36.54-32.506-54.358l-12.024-35.21,12.706,148.218-9.413,22.845h26.382l21.14-22.285-36.872-107.95c8.511,17.189,17.524,34.1,26.776,50.874,10.714,19.084,21.881,37.904,32.721,56.916l-19.132,22.445h2.791l19.162-21.344.668-.745-.497-.897c-10.713-19.459-21.067-39.113-31.902-58.509Z"/>
      <path d="M553.368,1774.311c-1.097,6.095-1.74,12.448-1.74,19.03,0,42.236,23.995,76.477,53.588,76.477s53.588-34.241,53.588-76.477c0-39.269-20.745-71.591-47.449-75.941-1.915,5.213-4.282,10.392-7.201,15.454-12.462,21.573-31.42,36.18-50.786,41.457Z"/>
      <path d="M514.532,1804.742c3.06-.794,6.032-1.968,8.633-4.726-3.552-1.315-6.738-1.052-9.832-.404-3.055.804-6.031,1.978-8.633,4.721,3.552,1.306,6.733,1.043,9.832.409Z"/>
      <path d="M541.67,1821.151c-7.868,2.037-14.991,4.97-22.202,7.859-7.147,3.035-14.28,5.968-21.3,10.051,8.141-.068,15.917-2.231,23.308-5.179,7.327-3.099,14.368-7.04,20.194-12.73Z"/>
      <path d="M527.068,1864.298c-5.281,2.894-10.388,6.129-14.743,10.787,6.3-.979,11.844-3.391,17.213-6.129,5.286-2.889,10.397-6.119,14.743-10.792-6.305.974-11.849,3.381-17.213,6.134Z"/>
      <path d="M546.873,1895.742c-4.073,4.902-7.615,10.319-9.427,16.702,5.242-4.029,9.339-8.618,13.437-13.276,3.966-4.76,7.864-9.525,11.011-15.342-6.022,2.777-10.826,7.123-15.02,11.917Z"/>
      <path d="M574.926,1945.774c3.021-7.576,4.634-15.235,6.081-22.952,1.281-7.742,2.397-15.488,2.178-23.644-3.83,7.216-5.895,14.928-7.366,22.728-1.311,7.824-2.022,15.781-.892,23.868Z"/>
      <path d="M611.701,1932.668c.477,11.6.521,23.147,1.316,35.016,3.367-11.43,4.292-23.366,3.951-35.196-.497-11.824-2.241-23.669-6.382-34.84.039,11.893.799,23.42,1.116,35.02Z"/>
      <path d="M636.173,1891.27c1.194,7.707,4.473,14.728,8.512,21.184,4.175,6.372,9.203,12.277,15.717,16.565-3.347-7.025-7.352-13.155-11.279-19.411-4.063-6.173-7.97-12.365-12.95-18.338Z"/>
      <path d="M656.568,1868.429c-1.043.059-2.056,1.082-1.905,1.978,1.154-1.442,2.597-.205,3.629.595.594.501.863.877,1.384,1.588.492.673,1.042,1.291,1.559,1.939,2.099,2.572,4.409,4.921,6.762,7.23,4.828,4.482,9.925,8.682,16.136,11.703-3.333-6.056-7.786-10.933-12.506-15.522-2.422-2.231-4.887-4.419-7.566-6.382-.672-.487-1.316-1.004-2.017-1.462-.643-.453-1.676-1.121-2.548-1.374-.94-.263-1.895-.477-2.928-.292Z"/>
      <path d="M703.193,1854.622c-4.258-4.755-9.915-7.669-15.795-9.53-5.924-1.72-12.248-2.456-18.426-.896,5.788,2.592,11.323,4.156,16.892,5.934,5.608,1.637,11.074,3.42,17.33,4.492Z"/>
      <path d="M693.381,1819.543c5.422-.37,10.767-.663,16.55-2.032-5.276-2.792-11.128-3.474-16.843-3.23-5.705.405-11.44,1.735-16.38,5.087,5.9.701,11.245.395,16.672.175Z"/>
      <path d="M709.951,1790.866c-4.955-2.743-10.67-3.128-16.063-2.324-5.369.94-10.675,3.094-14.528,7.245,5.603-.361,10.402-1.321,15.366-2.041,4.941-.862,9.793-1.452,15.225-2.879Z"/>
      <path d="M554.985,1558.854l-53.117,2.748c-4.052-1.846-7.967-3.725-11.652-5.618,2.438,2.061,4.991,3.958,7.561,5.829l-31.318,1.62-137.338,7.109,13.004,59.946c-12.375,40.832-26.173,81.242-37.417,100.861l29.349,63.317-6.319-62.981s10.889-24.784,23.941-57.125l43.352,199.881,69.397-302.151,109.48,25.637c-11.971,3.761-23.318,9.442-33.403,16.643-18.679,13.36-33.383,31.216-44.701,50.562-22.431,39.093-31.693,84.043-31.683,128.209.726,44.16,10.777,88.779,33.612,127.063,11.42,19.006,26.197,36.331,44.545,49.217,3.4,2.402,6.967,4.57,10.612,6.616-70.679-3.737-124.594-15.786-124.978-13.744-.234,1.223,19.064,6.689,110.62,26.236-38.085.093-76.175-1.588-114.104-5.028,107.668,31.278,238.629,47.074,345.961,6.616-34.631,2.095-69.447,1.13-103.912-2.884,19.079-1.223,37.729-8.453,52.648-20.414-16.609,2.752-37.169,5.588-60.945,7.59,3.153-1.9,6.251-3.892,9.204-6.071,17.876-13.154,32.009-30.625,42.821-49.612,10.928-18.996,18.514-39.692,23.59-60.862,5.208-21.159,7.722-42.938,7.898-64.725.029-21.793-2.222-43.605-6.953-64.964-4.701-21.349-11.98-42.319-22.694-61.714-9.106-16.483-20.701-31.946-35.166-44.623l128.028,29.978,36.964,70.503-16.307-93.777-270.58-69.89ZM662.765,1624.602c17.286,11.595,31.819,27.63,43.21,45.651,22.865,36.248,33.846,79.804,34.402,123.088-.185,21.69-2.685,43.361-7.868,64.408-5.325,20.994-13.515,41.296-24.687,59.771-11.264,18.367-25.739,34.894-43.302,47.01-6.285,4.385-13.009,8.112-20.015,11.113-22.07,1.466-46.582,2.134-73.086,1.354-8.765-3.43-17.111-7.985-24.73-13.545-17.091-12.385-30.928-29.057-41.578-47.415-21.315-36.974-30.387-80.17-30.436-122.698.472-25.579,4.307-51.254,11.947-75.546,5.067-16.097,11.761-31.6,20.419-46.012,7.537-12.624,16.648-24.287,27.181-34.26,4.497-4.258,9.228-8.243,14.246-11.805,16.619-12.024,36.429-19.391,56.75-19.62,1.423-.009,2.845.097,4.263.156l34.519,8.083c6.524,2.811,12.823,6.236,18.767,10.265Z"/>
      <path d="M397.51,2078.902c-9.043,6.358-17.222,13.686-25.354,21.062-7.206,6.704-13.788,14.036-20.356,21.354h6.353c5.968-5.808,11.99-11.561,17.714-17.608,7.42-8.024,15.026-15.863,22.002-24.419l-.361-.39Z"/>
      <path d="M441.047,2075.57c-9.267,6.704-17.695,14.333-26.095,21.983-8.039,7.484-15.376,15.678-22.791,23.766h6.168c6.845-6.611,13.778-13.126,20.331-20.024,7.702-8.302,15.566-16.448,22.752-25.34l-.365-.385Z"/>
      <path d="M447.537,2109.031c-4.731,3.566-8.663,8.034-12.74,12.287h6.606c3.259-2.69,6.557-5.33,9.573-8.283,4.239-4.117,8.453-8.268,12.287-13.028l-.321-.419c-5.608,2.466-10.631,5.808-15.405,9.442Z"/>
      <path d="M516.043,2096.257c-6.606,5.866-12.565,12.404-18.733,18.728-2.065,2.095-4.082,4.234-6.143,6.334h5.398c1.213-1.101,2.456-2.183,3.669-3.289,6.567-5.91,13.34-11.605,19.463-17.973,6.115-6.378,12.083-12.906,17.452-20.063l-.366-.38c-7.366,5.082-14.124,10.787-20.74,16.643Z"/>
      <path d="M586.727,2085.071c-6.826,5.262-13.052,11.245-19.474,16.989-7.182,6.358-14.275,12.833-21.403,19.26h3.523c6.865-5.34,13.778-10.626,20.589-16.024,6.787-5.306,13.769-10.383,20.151-16.18,6.368-5.808,12.609-11.771,18.285-18.402l-.341-.404c-7.527,4.424-14.494,9.515-21.33,14.762Z"/>
      <path d="M669.084,2066.635l-.326-.419c-5.71,2.611-10.879,5.924-15.922,9.403-5.057,3.449-9.452,7.747-14.134,11.683-9.354,7.883-18.616,15.883-27.785,23.995l.322.419c10.109-6.914,20.126-13.939,30.056-21.087,4.964-3.576,10.207-6.791,14.786-10.855,4.604-4.034,9.077-8.238,13.004-13.139Z"/>
      <path d="M688.728,2087.166c-3.459,1.695-6.285,4.385-9.272,6.758-5.983,4.76-11.595,9.958-16.765,15.532l.346.395c6.163-4.414,12.448-8.565,18.835-12.472,3.201-1.959,6.679-3.44,9.637-5.73,2.982-2.271,5.91-4.638,8.521-7.718l-.253-.462c-4.019.541-7.615,1.983-11.05,3.698Z"/>
      <path d="M740.937,2082.435c-3.439,1.886-6.197,4.741-9.12,7.298-5.856,5.131-11.294,10.699-16.248,16.643l.37.375c6.002-4.838,12.166-9.398,18.46-13.681,3.152-2.154,6.611-3.825,9.515-6.285,2.933-2.431,5.808-4.955,8.351-8.175l-.272-.448c-4.054.736-7.645,2.368-11.055,4.273Z"/>
      <path d="M776.927,2085.772c-2.456,2.124-4.239,4.892-6.48,7.274-4.463,4.755-9.267,9.262-14.417,13.471l.287.448c6.003-2.952,11.713-6.587,16.989-10.821,2.631-2.11,5.52-4.049,7.522-6.826,2.017-2.738,3.761-5.72,4.619-9.247l-.424-.321c-3.152,1.749-5.652,3.859-8.098,6.022Z"/>
      <path d="M1418.212,1774.311c-19.366-5.276-38.324-19.883-50.782-41.457-2.923-5.062-5.291-10.241-7.206-15.454-26.699,4.35-47.449,36.672-47.449,75.941,0,42.236,23.995,76.477,53.592,76.477s53.583-34.241,53.583-76.477c0-6.582-.643-12.935-1.74-19.03Z"/>
      <path d="M1409.687,1883.825c3.152,5.817,7.045,10.582,11.016,15.342,4.093,4.658,8.19,9.247,13.437,13.276-1.813-6.382-5.359-11.8-9.432-16.702-4.195-4.794-8.994-9.14-15.02-11.917Z"/>
      <path d="M1388.401,1899.177c-.225,8.156.891,15.902,2.173,23.644,1.447,7.717,3.06,15.376,6.085,22.952,1.126-8.088.414-16.044-.892-23.868-1.471-7.8-3.537-15.513-7.366-22.728Z"/>
      <path d="M1358.564,1967.683c.799-11.868.838-23.415,1.316-35.016.316-11.6,1.077-23.128,1.12-35.02-4.146,11.171-5.89,23.016-6.387,34.84-.336,11.829.585,23.766,3.951,35.196Z"/>
      <path d="M1311.178,1929.019c6.519-4.288,11.542-10.193,15.717-16.565,4.044-6.456,7.318-13.476,8.512-21.184-4.975,5.973-8.882,12.165-12.945,18.338-3.927,6.256-7.937,12.385-11.284,19.411Z"/>
      <path d="M1313.293,1871.002c1.033-.799,2.47-2.036,3.624-.595.156-.897-.857-1.919-1.905-1.978-1.028-.185-1.983.029-2.923.292-.872.253-1.905.921-2.548,1.374-.701.458-1.345.974-2.022,1.462-2.675,1.963-5.14,4.151-7.566,6.382-4.716,4.589-9.169,9.466-12.506,15.522,6.217-3.021,11.313-7.221,16.141-11.703,2.348-2.309,4.658-4.658,6.757-7.23.521-.648,1.067-1.267,1.564-1.939.516-.711.789-1.087,1.384-1.588Z"/>
      <path d="M1284.187,1845.092c-5.881,1.861-11.542,4.774-15.795,9.53,6.256-1.072,11.717-2.855,17.33-4.492,5.564-1.779,11.099-3.343,16.891-5.934-6.182-1.559-12.501-.823-18.426.896Z"/>
      <path d="M1294.871,1819.368c-4.94-3.352-10.675-4.682-16.38-5.087-5.715-.243-11.561.438-16.843,3.23,5.783,1.369,11.128,1.661,16.55,2.032,5.432.219,10.772.526,16.672-.175Z"/>
      <path d="M1292.221,1795.787c-3.849-4.151-9.154-6.305-14.523-7.245-5.394-.804-11.113-.419-16.068,2.324,5.432,1.427,10.29,2.017,15.23,2.879,4.96.721,9.764,1.681,15.362,2.041Z"/>
      <path d="M1574.07,2078.902l-.356.39c6.977,8.555,14.582,16.394,21.997,24.419,5.729,6.046,11.747,11.8,17.719,17.608h6.353c-6.573-7.318-13.155-14.65-20.361-21.354-8.127-7.376-16.307-14.704-25.354-21.062Z"/>
      <path d="M1530.533,2075.57l-.365.385c7.191,8.891,15.05,17.038,22.752,25.34,6.553,6.899,13.491,13.413,20.336,20.024h6.163c-7.415-8.088-14.753-16.283-22.786-23.766-8.404-7.649-16.828-15.279-26.1-21.983Z"/>
      <path d="M1524.048,2109.031c-4.774-3.634-9.802-6.977-15.41-9.442l-.321.419c3.834,4.76,8.049,8.911,12.292,13.028,3.011,2.952,6.309,5.593,9.568,8.283h6.606c-4.073-4.254-8.009-8.721-12.735-12.287Z"/>
      <path d="M1455.538,2096.257c-6.616-5.856-13.374-11.562-20.736-16.643l-.365.38c5.364,7.157,11.337,13.685,17.447,20.063,6.129,6.367,12.901,12.063,19.464,17.973,1.213,1.106,2.456,2.188,3.669,3.289h5.403c-2.061-2.1-4.083-4.239-6.148-6.334-6.168-6.324-12.127-12.863-18.733-18.728Z"/>
      <path d="M1384.859,2085.071c-6.84-5.247-13.808-10.339-21.335-14.762l-.341.404c5.681,6.631,11.917,12.594,18.29,18.402,6.377,5.798,13.359,10.874,20.146,16.18,6.816,5.398,13.724,10.684,20.594,16.024h3.518c-7.128-6.426-14.217-12.901-21.403-19.26-6.421-5.744-12.643-11.727-19.468-16.989Z"/>
      <path d="M1318.744,2075.619c-5.037-3.478-10.207-6.792-15.922-9.403l-.326.419c3.932,4.901,8.399,9.105,13.004,13.139,4.584,4.064,9.827,7.279,14.786,10.855,9.93,7.147,19.946,14.173,30.061,21.087l.322-.419c-9.174-8.112-18.436-16.112-27.79-23.995-4.677-3.936-9.077-8.234-14.134-11.683Z"/>
      <path d="M1282.857,2087.166c-3.435-1.715-7.035-3.157-11.055-3.698l-.248.462c2.606,3.079,5.534,5.447,8.521,7.718,2.952,2.29,6.436,3.771,9.632,5.73,6.387,3.907,12.672,8.058,18.835,12.472l.351-.395c-5.174-5.574-10.782-10.772-16.765-15.532-2.991-2.373-5.813-5.062-9.272-6.758Z"/>
      <path d="M1239.764,2089.733c-2.923-2.558-5.681-5.413-9.116-7.298-3.415-1.905-7.006-3.537-11.055-4.273l-.273.448c2.538,3.22,5.418,5.744,8.346,8.175,2.903,2.461,6.368,4.131,9.515,6.285,6.295,4.282,12.458,8.843,18.465,13.681l.37-.375c-4.955-5.944-10.397-11.513-16.253-16.643Z"/>
      <path d="M1194.653,2085.772c-2.441-2.163-4.945-4.273-8.098-6.022l-.423.321c.862,3.527,2.602,6.509,4.623,9.247,2.003,2.777,4.892,4.716,7.518,6.826,5.281,4.234,10.991,7.868,16.994,10.821l.283-.448c-5.145-4.21-9.954-8.716-14.412-13.471-2.241-2.382-4.024-5.15-6.485-7.274Z"/>
      <path d="M1542.977,1526.206l-86.889,22.446v-32.483l20.789-1.076,4.224-.219-.025-12.686c7.006,3.961,14.061,7.849,21.184,11.59l17.647-.916c-39.352-19.683-77.066-42.606-112.471-68.749-41.876-30.743-80.555-65.827-115.312-104.457-16.794-18.748-32.609-38.373-47.42-58.728l.799,14.387,12.643,227.14-8.638.446-4.307-85.059-11.367-224.602-.472-9.31c-.682.243-1.364.521-2.046.755-8.453,2.85-17.218,5.082-25.734,5.432,9.033-22.991,17.237-46.294,24.555-69.865l-1.111-21.978c-9.593,32.014-20.691,63.561-33.495,94.406l-2.227,5.364,2.08.171c-4.229,10.007-8.59,19.956-13.189,29.797-22.363,47.824-48.789,93.724-79.229,136.793-46.173,65.441-101.597,124.232-163.916,174.376l13.841-.696,24.65-1.241c10.853,59.935,18.151,105.649,18.857,123.632,1.035,26.225,8.551-33.526,18.162-125.496l144.96-7.298,14.202,73.506-27.707,7.157-16.302,93.777,36.96-70.503,12.37-2.894,66.09,342.029,6.485-91.634c2.918,6.621,6.144,13.121,9.764,19.41,10.806,18.987,24.94,36.458,42.82,49.612,2.948,2.178,6.046,4.171,9.199,6.071-23.776-2.002-44.336-4.843-60.94-7.59,14.918,11.961,33.563,19.191,52.643,20.414-34.46,4.014-69.281,4.979-103.912,2.884,107.332,40.458,238.293,24.662,345.961-6.616-37.929,3.44-76.014,5.121-114.104,5.028,91.555-19.547,110.859-25.013,110.625-26.236-.39-2.041-54.299,10.007-124.983,13.744,3.644-2.046,7.216-4.214,10.612-6.616,18.353-12.887,33.125-30.211,44.545-49.217,22.836-38.285,32.886-82.903,33.612-127.063.014-44.166-9.252-89.115-31.683-128.209-5.68-9.715-12.219-19.054-19.688-27.634v-53.252l96.034-22.484,124.364,483.474,74.435-548.292-212.641,11.006,4.697,18.255ZM1388.249,1566.177l-115.147,29.739,4.99-70.535,101.038-5.229,9.118,46.026ZM1270.857,1627.623l23.844-5.584c-9.779,8.575-18.231,18.421-25.5,28.998l1.656-23.415ZM1464.541,1671.783c8.657,14.412,15.352,29.915,20.418,46.012,7.645,24.292,11.474,49.968,11.952,75.546-.049,42.528-9.125,85.724-30.441,122.698-10.65,18.358-24.487,35.03-41.578,47.415-7.62,5.559-15.966,10.115-24.73,13.545-26.504.779-51.01.112-73.081-1.354-7.006-3.001-13.734-6.729-20.014-11.113-17.564-12.117-32.039-28.643-43.303-47.01-4.448-7.357-8.287-15.06-11.795-22.918l16.141-228.12c10.992-16.477,24.643-31.103,40.706-41.88,5.944-4.029,12.248-7.454,18.772-10.265l34.514-8.083c1.422-.059,2.84-.166,4.268-.156,10.582.117,21.018,2.212,30.952,5.856l3.381,17.067,29.189,147.336,9.457,47.736c-3.065-1.082-6.178-2.105-9.437-2.943,3.157,3.079,6.684,5.613,10.402,7.815l7.357,37.144c-1.047-.619-2.095-1.228-3.157-1.812-5.364-2.752-10.908-5.16-17.213-6.134,4.346,4.672,9.457,7.902,14.743,10.792,2.222,1.13,4.487,2.178,6.811,3.118l7.235,36.526v-34.197c1.043.253,2.08.516,3.167.682-1.013-1.082-2.08-2.08-3.167-3.02v-36.034c5.574,1.788,11.352,2.977,17.33,3.03-5.72-3.323-11.518-5.886-17.33-8.365v-26.241l.96.287c3.099.634,6.285.896,9.832-.409-2.602-2.743-5.574-3.917-8.633-4.721-.711-.151-1.433-.268-2.159-.366v-140.305c3.001,4.146,5.822,8.438,8.453,12.843Z"/>
      <polygon points="1272.642 1508.308 1198.526 .003 1167.784 .003 1241.979 1509.815 .008 1570.844 .008 1601.586 2121.315 1497.344 2121.315 1466.606 1272.642 1508.308" style="fill: #c98f88;"/>
      <path d="M67.457,901.403l3.82-.653c-2.124-31.873-3.259-63.819-2.524-95.741.692-31.917,3.06-63.795,7.464-95.39,4.317-31.6,10.592-62.947,19.352-93.612,8.103-28.528,18.499-56.385,30.952-83.299,3.021,19.19,6.655,38.278,10.977,57.209,4.853,21.116,10.358,42.09,16.926,62.733l2.324,7.298-.273-7.625c-1.033-28.74,2.938-57.714,11.723-85.222-8.644,24.964-13.267,51.348-13.743,77.863-5.162-18.444-9.912-37.001-13.882-55.73-4.512-21.115-8.224-42.392-11.122-63.78l-.887-6.563-2.923,5.968c-28.306,57.768-45.529,120.535-54.338,184.086-4.292,31.824-6.529,63.897-7.079,95.975-.399,25.542.185,51.092,1.782,76.575l-22.332-81.018-28.068-99.775,25.661,100.423,26.192,100.277Z" style="fill: #c98f88;"/>
      <path d="M467.19,655.28c24.545,59.374,51.059,117.918,78.68,175.928,1.633,3.911,3.416,7.766,5.445,11.515l4.341-2.222c-1.397-2.867-2.739-5.761-4.129-8.632-6.281-14.334-10.034-29.792-12.236-45.428-2.607-18.831-3.333-37.982-4.029-57.13-1.501-38.285-1.472-76.618.414-114.854,1.749-38.246,6.221-76.37,13.651-113.933,7.386-37.564,18.475-74.445,33.496-109.758-15.791,34.967-27.8,71.682-35.985,109.241-7.932,37.608-12.907,75.849-15.152,114.221-2.339,38.377-2.319,76.857-1.038,115.244.619,19.172,1.252,38.436,3.834,57.641.629,4.677,1.403,9.357,2.342,14.012-22.983-48.675-44.958-97.826-66.264-147.268-13.515-31.41-26.553-63.029-39.332-94.751-12.853-31.693-25.306-63.556-37.354-95.576,11.332,32.278,23.074,64.418,35.225,96.413,12.219,31.961,24.993,63.717,38.089,95.337Z" style="fill: #c98f88;"/>
      <path d="M913.584,727.416c11.659,32.219,26.314,63.332,43.834,92.716-16.964-29.705-31.006-61.032-42.016-93.354-10.957-32.341-19.196-65.588-24.224-99.327-9.715-65.381-8.084-132.472,5.644-197.075,28.674,52.991,56.942,106.171,86.413,158.781,15.298,27.181,31.006,54.163,47.717,80.54,16.633,26.417,34.372,52.166,53.461,76.901l3.001,3.893.36-4.887c2.329-31.829,12.366-62.708,25.769-91.707,13.315-28.732,29.55-56.066,46.053-83.176,6.63,17.876,14.658,35.216,24.022,51.79-9.228-17.076-17.062-34.894-23.396-53.213l-.37-1.077-.614.969c-17.145,27.143-34.387,54.378-48.17,83.546-13.106,27.596-23.175,57.092-26.487,87.751-36.25-48.615-67.734-100.61-97.23-153.636-15.186-27.191-29.856-54.679-44.764-82.056l-44.691-82.133-2.938-5.408-1.335,6.003c-14.938,67.088-16.638,136.973-5.661,204.695,5.466,33.861,13.895,67.254,25.622,99.463Z" style="fill: #c98f88;"/>
      <path d="M271.397,1061.091c-6.314,1.373-12.522,3.262-18.499,5.732l-8.75,3.615,9.379-1.237c12.448-1.647,24.974-2.611,37.52-3.269,12.55-.604,25.13-.838,37.724-.624-12.55-1.106-25.174-1.549-37.793-1.267-9.258.168-18.504.772-27.727,1.649,4.333-1.38,8.743-2.526,13.218-3.349l4.565-.843-4.443-1.32c-8.618-2.558-17.466-4.297-26.363-5.408-8.901-1.174-17.895-1.383-26.82-1.087,8.94.205,17.817,1.223,26.606,2.577,7.229,1.167,14.343,2.875,21.383,4.83Z" style="fill: #c98f88;"/>
      <path d="M815.689,938.226c23.776-6.977,48.531-10.324,73.281-10.636,24.774-.238,49.554,2.792,73.7,8.463,12.039,2.991,23.966,6.446,35.663,10.611,11.669,4.224,23.152,8.96,34.421,14.197l1.145.536-.594-1.111c-2.333-4.344-5.66-8.117-9.602-11.038l20.008,3.462-20.862-4.102-1.062-.21.877.643c3.804,2.784,6.944,6.41,9.235,10.497-21.912-10.894-45.106-19.113-68.83-25.127-24.224-5.89-49.14-9.145-74.114-9.096-24.974-.049-49.968,3.649-73.871,10.87-22.531,6.549-43.994,16.501-63.911,28.829,11.627-14.401,23.279-28.781,34.747-43.309l.507-.638-.809.02c-11.235.278-22.368,3.157-32.287,8.322,9.773-4.814,20.603-7.362,31.444-7.515-12.665,15.13-25.134,30.419-37.646,45.673l-3.025,3.683,4.044-2.543c20.97-13.213,43.698-23.751,67.541-30.479Z" style="fill: #c98f88;"/>
      <path d="M1324.223,476.654l54.219,101.784,55.264,103.01,3.825,7.123-.818-8.048c-5.681-55.707-.351-111.994,10.26-166.868,10.134-52.486,24.95-103.944,40.081-155.286,18.09,55.814,40.386,110.238,65.906,163.037,26.699,55.079,57.179,108.315,91.181,159.19l3.581,5.355-.351-6.422c-3.727-67.537.619-135.521,12.711-202.103,6.056-33.291,13.778-66.299,23.557-98.723,9.739-32.434,21.378-64.307,34.889-95.385-13.925,30.893-26.007,62.635-36.2,94.98-10.158,32.356-18.573,65.291-24.784,98.659-12.043,64.633-16.744,130.649-13.917,196.38-32.275-49.293-61.283-100.709-86.73-153.827-26.431-55.001-48.76-111.902-67.702-169.879l-2.397-7.337-2.149,7.401c-15.625,53.856-31.171,107.931-41.583,163.214-9.932,52.673-14.928,106.728-10.166,160.327l-52.114-96.06-56.053-102.586-.73-1.335-.551,1.408c-12.945,33.042-18.373,68.935-15.8,104.223-2.068-34.798,3.673-69.964,16.572-102.232Z" style="fill: #c98f88;"/>
      <path d="M1946.841,585.493c-14.382-37.651-22.616-77.476-24.55-117.539-1.646-37.72,2.022-75.685,11.626-112.158,9.178,22.043,19.025,43.799,29.508,65.25,11.484,23.566,23.605,46.821,36.409,69.695,25.832,45.617,54.177,89.807,85.461,131.804-29.384-43.328-56.901-87.868-81.812-133.826-12.57-22.914-24.535-46.153-35.819-69.72-11.26-23.581-21.91-47.444-32.073-71.512l-2.67-6.324-1.818,6.592c-10.782,39.098-15.098,79.995-12.287,120.398,2.631,40.394,12.01,80.335,28.024,117.339Z" style="fill: #c98f88;"/>
      <path d="M1599.727,1245.375c7.137-12.482,14.367-24.93,21.89-37.237-8.624,11.556-16.858,23.43-24.488,35.688-3.834,6.114-7.586,12.287-11.245,18.514-3.702,6.207-7.089,12.589-10.504,18.952l-3.454,6.426,6.48-3.435c11.469-6.071,23.786-10.407,36.39-13.52,12.589-3.22,25.539-5.096,38.567-6.09,13.033-.901,26.144-1.428,39.284-1.233,13.139.132,26.304.497,39.483.804-13.086-1.564-26.202-2.952-39.391-3.668-13.174-.658-26.431-1.145-39.673-.244-13.238.814-26.48,2.519-39.459,5.637-10.697,2.639-21.122,6.434-31.055,11.255l6.811-12.94c3.362-6.353,6.816-12.653,10.363-18.908Z" style="fill: #c98f88;"/>
      <path d="M1269.298,872.214c6.811-.248,13.584,3.001,19.371,7.147,5.817,4.263,11.391,9.13,16.843,14.022,5.432,4.935,10.709,10.051,15.888,15.288-4.697-5.671-9.666-11.128-14.836-16.384-5.228-5.208-10.343-10.509-16.287-15.099-5.89-4.511-12.964-8.438-21.047-8.487-3.946.024-7.922.907-11.488,2.845-.716.377-1.396.844-2.067,1.323,2.653-10.935,5.873-21.729,9.677-32.309,4.896-13.422,10.475-26.592,16.891-39.366,6.421-12.765,13.759-25.072,21.783-36.906,7.952-11.898,16.707-23.269,26.222-33.997l2.271-2.553-3.328.443c-13.267,1.783-25.944,7.489-35.654,16.394,9.53-7.292,20.864-12.037,32.57-13.511-9.101,9.744-17.619,20.052-25.442,30.885-8.399,11.805-15.892,24.253-22.597,37.11-6.704,12.853-12.531,26.183-17.213,39.912-4.74,13.705-8.555,27.727-11.386,41.939l4.073,1.159c2.1-5.978,8.994-9.686,15.756-9.856Z" style="fill: #c98f88;"/>
      <path d="M1909.283,684.011c16.214,14.037,32.711,27.771,49.846,40.682,17.116,12.931,34.616,25.345,52.458,37.242l6.182,4.122-3.069-6.724-21.515-47.108-10.943-23.474-11.084-23.41,9.72,24.01,9.861,23.946,17.235,40.938c-15.57-10.763-30.908-21.857-45.892-33.41-16.896-13.062-33.661-26.299-49.885-40.194-16.195-13.929-32.204-28.078-47.781-42.718-15.527-14.69-30.84-29.627-45.802-44.955,13.963,16.239,28.492,32.014,43.688,47.133,15.147,15.162,30.748,29.904,46.981,43.922Z" style="fill: #c98f88;"/>
      <path d="M393.079,1795.934c-1.751-10.715-3.546-21.422-5.293-32.137l-7.849-46.923-8.249-46.86c-2.923-15.595-5.695-31.21-8.789-46.776,1.934,15.751,4.185,31.454,6.29,47.176l6.825,47.089,7.226,47.025c2.475,15.668,4.774,31.356,7.396,47.001l2.646,15.776,2.192-15.81c3.888-28.039,9.481-55.814,15.83-83.409,6.465-27.576,14.158-54.874,22.747-81.939-10.416,26.421-19.103,53.539-26.328,81.052-6.044,22.638-10.732,45.625-14.643,68.736Z" style="fill: #c98f88;"/>
      <path d="M1240.045,1837.06c-3.727-17.181-7.458-34.361-10.99-51.582-4.726-22.704-9.12-45.471-13.598-68.223-4.477-22.753-8.77-45.544-12.877-68.37l-12.297-68.506c2.914,23.026,6.334,45.978,9.803,68.925,3.635,22.923,7.454,45.817,11.469,68.676,4.01,22.865,8.477,45.641,12.989,68.414,4.585,22.752,9.179,45.51,14.28,68.155l3.703,16.434,1.131-16.818c2.782-41.398,5.9-82.772,8.409-124.194,2.626-41.408,5.135-82.835,7.177-124.301-3.971,41.315-7.474,82.674-10.855,124.047-3.024,35.765-5.618,71.558-8.342,107.343Z" style="fill: #c98f88;"/>
      <path d="M1700.564,1685.98l-12.736,90.737c-4.278,30.246-8.17,60.545-11.946,90.864-1.851,15.167-3.62,30.348-5.223,45.558-.724,8.412-1.64,16.709-2.253,25.112-5.204-24.286-10.49-48.554-15.861-72.804-6.928-30.991-13.778-62.007-21.14-92.901l-22.27-92.638c-7.737-30.801-15.43-61.612-23.571-92.311l21.164,92.881,20.901,92.929,20.463,93.018,19.819,93.153,4.892-.784c-.633-14.587,1.311-30.119,2.568-45.183,1.525-15.171,3.215-30.333,4.994-45.491l11.216-90.908,11.361-90.917,5.281-45.52c1.593-15.181,3.532-30.363,3.946-45.646-.94,15.244-3.323,30.348-5.237,45.49l-6.368,45.359Z" style="fill: #c98f88;"/>
      <path d="M1916.581,1737.045l-.068-18.046c-.078-20.292.034-40.584-.39-60.881-.185-10.149-.234-20.292-.531-30.441-.302-10.149-.497-20.297-.935-30.445-.521,10.144-.804,20.292-1.184,30.435-.385,10.144-.517,20.292-.79,30.436-.419,14.301-.571,28.601-.711,42.902-5.466-20.519-11.59-40.86-17.788-61.163-8.365-25.905-17.228-51.649-27.317-76.925,7.873,26.046,15.882,52.009,23.288,78.143,7.815,26.012,14.611,52.307,21.7,78.518l4.726,17.466Z" style="fill: #c98f88;"/>
      <path d="M1029.846,2093.568c.283,1.169.56,2.363.463,3.562-.146,1.695-1.033,3.225-1.9,4.692-3.006,5.086-6.017,10.177-9.028,15.264,4.818-8.17,12.024-14.909,20.501-19.167.063-.034-21.748-54.134-23.205-59.41,4.667,18.275,8.799,36.711,13.169,55.059Z" style="fill: #c98f88;"/>
      <path d="M1977.136,2006.679c-25.788,18.499-53.364,34.509-82.036,48.273-28.531,14.08-58.148,25.929-88.062,36.988l-.288.107-.058.278-3.922,19.137,4.883-18.603c30.392-9.488,60.245-20.803,89.26-34.108,28.935-13.652,57.033-29.345,83.083-48.087,25.91-18.884,50.061-40.404,70.557-65.11,20.541-24.604,37.72-52.16,49.354-81.924-13.427,28.97-31.264,55.644-52.17,79.517-20.994,23.805-44.701,45.188-70.601,63.532Z" style="fill: #c98f88;"/>
    </g>
  </g>
</svg>